<svg xmlns="http://www.w3.org/2000/svg" xmlns:xlink="http://www.w3.org/1999/xlink" width="450" zoomAndPan="magnify" viewBox="0 0 337.5 311.25" height="415" preserveAspectRatio="xMidYMid meet" version="1.0"><defs><g/></defs><g fill="#41729f" fill-opacity="1"><g transform="translate(20.92805, 196.695889)"><g><path d="M 73.671875 -78.546875 L 73.671875 0 L 68.34375 0 C 67.507812 0 66.804688 -0.144531 66.234375 -0.4375 C 65.671875 -0.726562 65.113281 -1.222656 64.5625 -1.921875 L 19.125 -61.109375 C 19.195312 -60.203125 19.25 -59.304688 19.28125 -58.421875 C 19.320312 -57.546875 19.34375 -56.726562 19.34375 -55.96875 L 19.34375 0 L 10.03125 0 L 10.03125 -78.546875 L 15.515625 -78.546875 C 15.984375 -78.546875 16.382812 -78.515625 16.71875 -78.453125 C 17.050781 -78.398438 17.34375 -78.3125 17.59375 -78.1875 C 17.851562 -78.0625 18.109375 -77.878906 18.359375 -77.640625 C 18.617188 -77.398438 18.894531 -77.097656 19.1875 -76.734375 L 64.625 -17.59375 C 64.550781 -18.539062 64.484375 -19.460938 64.421875 -20.359375 C 64.367188 -21.253906 64.34375 -22.101562 64.34375 -22.90625 L 64.34375 -78.546875 Z M 73.671875 -78.546875 "/></g></g></g><g fill="#41729f" fill-opacity="1"><g transform="translate(132.141316, 196.695889)"><g><path d="M 73.671875 -78.546875 L 73.671875 0 L 63.03125 0 L 63.03125 -35.734375 L 20.671875 -35.734375 L 20.671875 0 L 10.03125 0 L 10.03125 -78.546875 L 20.671875 -78.546875 L 20.671875 -43.515625 L 63.03125 -43.515625 L 63.03125 -78.546875 Z M 73.671875 -78.546875 "/></g></g></g><g fill="#41729f" fill-opacity="1"><g transform="translate(243.354581, 196.695889)"><g><path d="M 65.171875 -16.21875 C 65.753906 -16.21875 66.265625 -15.984375 66.703125 -15.515625 L 70.921875 -10.96875 C 67.710938 -7.238281 63.8125 -4.332031 59.21875 -2.25 C 54.632812 -0.164062 49.09375 0.875 42.59375 0.875 C 36.957031 0.875 31.835938 -0.0976562 27.234375 -2.046875 C 22.628906 -4.003906 18.703125 -6.742188 15.453125 -10.265625 C 12.203125 -13.796875 9.679688 -18.023438 7.890625 -22.953125 C 6.097656 -27.890625 5.203125 -33.320312 5.203125 -39.25 C 5.203125 -45.164062 6.132812 -50.585938 8 -55.515625 C 9.863281 -60.453125 12.484375 -64.691406 15.859375 -68.234375 C 19.242188 -71.785156 23.289062 -74.535156 28 -76.484375 C 32.71875 -78.441406 37.925781 -79.421875 43.625 -79.421875 C 49.21875 -79.421875 54.148438 -78.523438 58.421875 -76.734375 C 62.703125 -74.941406 66.46875 -72.515625 69.71875 -69.453125 L 66.21875 -64.5625 C 66 -64.195312 65.710938 -63.894531 65.359375 -63.65625 C 65.015625 -63.425781 64.550781 -63.3125 63.96875 -63.3125 C 63.3125 -63.3125 62.503906 -63.664062 61.546875 -64.375 C 60.597656 -65.09375 59.359375 -65.890625 57.828125 -66.765625 C 56.296875 -67.640625 54.378906 -68.429688 52.078125 -69.140625 C 49.773438 -69.859375 46.941406 -70.21875 43.578125 -70.21875 C 39.515625 -70.21875 35.800781 -69.515625 32.4375 -68.109375 C 29.082031 -66.703125 26.1875 -64.660156 23.75 -61.984375 C 21.320312 -59.316406 19.429688 -56.066406 18.078125 -52.234375 C 16.734375 -48.398438 16.0625 -44.070312 16.0625 -39.25 C 16.0625 -34.351562 16.765625 -29.984375 18.171875 -26.140625 C 19.578125 -22.304688 21.492188 -19.0625 23.921875 -16.40625 C 26.359375 -13.757812 29.226562 -11.742188 32.53125 -10.359375 C 35.832031 -8.972656 39.40625 -8.28125 43.25 -8.28125 C 45.582031 -8.28125 47.691406 -8.414062 49.578125 -8.6875 C 51.460938 -8.957031 53.195312 -9.382812 54.78125 -9.96875 C 56.375 -10.5625 57.851562 -11.300781 59.21875 -12.1875 C 60.59375 -13.082031 61.957031 -14.15625 63.3125 -15.40625 C 63.925781 -15.945312 64.546875 -16.21875 65.171875 -16.21875 Z M 65.171875 -16.21875 "/></g></g></g></svg>