<svg xmlns="http://www.w3.org/2000/svg" xmlns:xlink="http://www.w3.org/1999/xlink" width="450" zoomAndPan="magnify" viewBox="0 0 337.5 311.25" height="415" preserveAspectRatio="xMidYMid meet" version="1.0"><defs><clipPath id="1c6627bf1e"><path d="M 81.988281 90.476562 L 255.511719 90.476562 L 255.511719 264.003906 L 81.988281 264.003906 Z M 81.988281 90.476562 " clip-rule="nonzero"/></clipPath><clipPath id="ac58005b88"><path d="M 168.75 90.476562 C 120.832031 90.476562 81.988281 129.324219 81.988281 177.242188 C 81.988281 225.15625 120.832031 264.003906 168.75 264.003906 C 216.667969 264.003906 255.511719 225.15625 255.511719 177.242188 C 255.511719 129.324219 216.667969 90.476562 168.75 90.476562 " clip-rule="nonzero"/></clipPath><clipPath id="57e408e57e"><path d="M 166 36.382812 L 171 36.382812 L 171 67 L 166 67 Z M 166 36.382812 " clip-rule="nonzero"/></clipPath><clipPath id="76c014cd1e"><path d="M 294 190 L 324.8125 190 L 324.8125 194.488281 L 294 194.488281 Z M 294 190 " clip-rule="nonzero"/></clipPath><clipPath id="9630415948"><path d="M 12.351562 190 L 43 190 L 43 194.488281 L 12.351562 194.488281 Z M 12.351562 190 " clip-rule="nonzero"/></clipPath><clipPath id="91ffc52344"><path d="M 104 145 L 233.523438 145 L 233.523438 274.496094 L 104 274.496094 Z M 104 145 " clip-rule="nonzero"/></clipPath></defs><g clip-path="url(#1c6627bf1e)"><g clip-path="url(#ac58005b88)"><path fill="#c3e0e5" d="M 81.988281 90.476562 L 255.511719 90.476562 L 255.511719 264.003906 L 81.988281 264.003906 Z M 81.988281 90.476562 " fill-opacity="1" fill-rule="nonzero"/></g></g><path fill="#c3e0e5" d="M 230.511719 97.6875 L 246.445312 71.503906 L 249.492188 73.523438 L 231.664062 98.453125 L 230.511719 97.6875 " fill-opacity="1" fill-rule="nonzero"/><path fill="#c3e0e5" d="M 262.074219 128.652344 L 286.792969 110.574219 L 288.835938 113.609375 L 262.847656 129.804688 L 262.074219 128.652344 " fill-opacity="1" fill-rule="nonzero"/><path fill="#c3e0e5" d="M 279.402344 169.367188 L 309.148438 162.144531 L 309.875 165.734375 L 279.679688 170.726562 L 279.402344 169.367188 " fill-opacity="1" fill-rule="nonzero"/><path fill="#c3e0e5" d="M 27.101562 166.96875 L 27.796875 163.375 L 57.601562 170.335938 L 57.339844 171.699219 L 27.101562 166.96875 " fill-opacity="1" fill-rule="nonzero"/><path fill="#c3e0e5" d="M 49.703125 111.609375 L 74.578125 129.476562 L 73.8125 130.628906 L 47.683594 114.667969 L 49.703125 111.609375 " fill-opacity="1" fill-rule="nonzero"/><path fill="#c3e0e5" d="M 104.722656 99.007812 L 86.679688 74.238281 L 89.710938 72.1875 L 105.867188 98.230469 L 104.722656 99.007812 " fill-opacity="1" fill-rule="nonzero"/><path fill="#c3e0e5" d="M 141.726562 51.109375 L 146.710938 81.363281 L 145.355469 81.640625 L 138.140625 51.839844 L 141.726562 51.109375 " fill-opacity="1" fill-rule="nonzero"/><path fill="#c3e0e5" d="M 194.246094 50.875 L 197.832031 51.574219 L 190.882812 81.4375 L 189.523438 81.175781 L 194.246094 50.875 " fill-opacity="1" fill-rule="nonzero"/><g clip-path="url(#57e408e57e)"><path fill="#c3e0e5" d="M 170.429688 36.375 L 169.292969 66.773438 L 167.910156 66.773438 L 166.773438 36.375 L 170.429688 36.375 " fill-opacity="1" fill-rule="nonzero"/></g><path fill="#c3e0e5" d="M 216.042969 76.089844 L 226.601562 47.570312 L 229.980469 48.972656 L 217.320312 76.621094 L 216.042969 76.089844 " fill-opacity="1" fill-rule="nonzero"/><path fill="#c3e0e5" d="M 256.953125 103.15625 L 277.601562 80.855469 L 280.1875 83.445312 L 257.929688 104.132812 L 256.953125 103.15625 " fill-opacity="1" fill-rule="nonzero"/><path fill="#c3e0e5" d="M 284.941406 145.128906 L 284.414062 143.847656 L 312.003906 131.164062 L 313.40625 134.546875 L 284.941406 145.128906 " fill-opacity="1" fill-rule="nonzero"/><g clip-path="url(#76c014cd1e)"><path fill="#c3e0e5" d="M 294.242188 191.96875 L 324.578125 190.832031 L 324.578125 194.496094 L 294.242188 193.355469 L 294.242188 191.96875 " fill-opacity="1" fill-rule="nonzero"/></g><g clip-path="url(#9630415948)"><path fill="#c3e0e5" d="M 12.628906 190.832031 L 42.964844 191.96875 L 42.964844 193.355469 L 12.628906 194.496094 L 12.628906 190.832031 " fill-opacity="1" fill-rule="nonzero"/></g><path fill="#c3e0e5" d="M 52.261719 145.128906 L 23.800781 134.546875 L 25.199219 131.164062 L 52.792969 143.847656 L 52.261719 145.128906 " fill-opacity="1" fill-rule="nonzero"/><path fill="#c3e0e5" d="M 57.019531 83.445312 L 59.601562 80.855469 L 80.253906 103.15625 L 79.273438 104.132812 L 57.019531 83.445312 " fill-opacity="1" fill-rule="nonzero"/><path fill="#c3e0e5" d="M 110.601562 47.570312 L 121.164062 76.089844 L 119.882812 76.621094 L 107.222656 48.972656 L 110.601562 47.570312 " fill-opacity="1" fill-rule="nonzero"/><g clip-path="url(#91ffc52344)"><path fill="#274472" d="M 232.390625 223.011719 L 173.625 174.605469 C 177.601562 171.101562 181.371094 167.386719 184.933594 163.460938 C 185.921875 162.164062 186.574219 160.714844 186.898438 159.117188 C 187.222656 157.523438 187.179688 155.933594 186.773438 154.355469 C 186.550781 153.480469 186.234375 152.636719 185.820312 151.832031 C 185.410156 151.027344 184.910156 150.28125 184.328125 149.589844 C 183.746094 148.898438 183.09375 148.277344 182.371094 147.734375 C 181.648438 147.191406 180.871094 146.734375 180.046875 146.367188 C 179.136719 145.980469 178.191406 145.730469 177.207031 145.609375 C 176.226562 145.492188 175.25 145.507812 174.273438 145.664062 C 173.296875 145.820312 172.359375 146.105469 171.464844 146.523438 C 170.570312 146.945312 169.746094 147.476562 169 148.125 C 168.253906 147.480469 167.433594 146.945312 166.539062 146.527344 C 165.640625 146.109375 164.707031 145.824219 163.730469 145.667969 C 162.753906 145.511719 161.777344 145.496094 160.796875 145.613281 C 159.8125 145.730469 158.867188 145.984375 157.957031 146.367188 C 157.132812 146.734375 156.355469 147.191406 155.632812 147.734375 C 154.910156 148.277344 154.257812 148.898438 153.675781 149.589844 C 153.09375 150.28125 152.59375 151.027344 152.183594 151.832031 C 151.769531 152.636719 151.453125 153.480469 151.230469 154.355469 C 150.824219 155.933594 150.78125 157.523438 151.105469 159.117188 C 151.429688 160.714844 152.082031 162.164062 153.070312 163.460938 C 156.632812 167.386719 160.402344 171.101562 164.378906 174.605469 L 105.613281 223.011719 C 105.300781 223.269531 105.050781 223.574219 104.859375 223.925781 C 104.671875 224.28125 104.558594 224.660156 104.515625 225.058594 C 104.476562 225.460938 104.515625 225.851562 104.632812 226.238281 C 104.75 226.621094 104.9375 226.972656 105.191406 227.28125 C 105.445312 227.59375 105.75 227.84375 106.105469 228.035156 C 106.460938 228.222656 106.835938 228.335938 107.238281 228.378906 C 107.636719 228.417969 108.03125 228.378906 108.414062 228.261719 C 108.800781 228.144531 109.148438 227.960938 109.460938 227.703125 L 120.632812 218.496094 L 120.632812 271.445312 C 120.632812 271.847656 120.707031 272.238281 120.859375 272.609375 C 121.011719 272.984375 121.226562 273.3125 121.511719 273.601562 C 121.796875 273.886719 122.125 274.105469 122.496094 274.261719 C 122.871094 274.417969 123.257812 274.496094 123.660156 274.496094 L 153.042969 274.496094 C 153.441406 274.496094 153.828125 274.417969 154.195312 274.261719 C 154.566406 274.109375 154.894531 273.890625 155.175781 273.609375 C 155.457031 273.324219 155.675781 273 155.832031 272.628906 C 155.984375 272.257812 156.0625 271.875 156.0625 271.472656 L 156.0625 245.839844 C 156.0625 244.992188 156.144531 244.148438 156.3125 243.316406 C 156.476562 242.484375 156.722656 241.675781 157.046875 240.890625 C 157.371094 240.105469 157.769531 239.359375 158.242188 238.652344 C 158.714844 237.945312 159.25 237.292969 159.851562 236.691406 C 160.453125 236.089844 161.105469 235.554688 161.8125 235.082031 C 162.519531 234.609375 163.265625 234.210938 164.050781 233.886719 C 164.835938 233.5625 165.644531 233.316406 166.476562 233.152344 C 167.3125 232.984375 168.152344 232.902344 169 232.902344 C 169.851562 232.902344 170.691406 232.984375 171.527344 233.152344 C 172.359375 233.316406 173.167969 233.5625 173.953125 233.886719 C 174.738281 234.210938 175.484375 234.609375 176.191406 235.082031 C 176.898438 235.554688 177.550781 236.089844 178.152344 236.691406 C 178.753906 237.292969 179.289062 237.945312 179.761719 238.652344 C 180.234375 239.359375 180.632812 240.105469 180.957031 240.890625 C 181.28125 241.675781 181.527344 242.484375 181.691406 243.316406 C 181.859375 244.148438 181.941406 244.992188 181.941406 245.839844 L 181.941406 271.445312 C 181.941406 271.84375 182.019531 272.230469 182.171875 272.601562 C 182.328125 272.96875 182.542969 273.296875 182.828125 273.578125 C 183.109375 273.863281 183.4375 274.082031 183.808594 274.234375 C 184.175781 274.386719 184.5625 274.464844 184.960938 274.464844 L 214.34375 274.464844 C 214.742188 274.464844 215.128906 274.390625 215.5 274.234375 C 215.871094 274.082031 216.199219 273.863281 216.480469 273.582031 C 216.765625 273.296875 216.984375 272.972656 217.136719 272.601562 C 217.292969 272.230469 217.367188 271.84375 217.371094 271.445312 L 217.371094 218.472656 L 228.542969 227.679688 C 228.855469 227.9375 229.203125 228.121094 229.585938 228.238281 C 229.972656 228.355469 230.367188 228.394531 230.765625 228.351562 C 231.164062 228.3125 231.542969 228.199219 231.898438 228.007812 C 232.25 227.820312 232.558594 227.570312 232.8125 227.257812 C 233.066406 226.945312 233.253906 226.597656 233.367188 226.214844 C 233.484375 225.828125 233.523438 225.4375 233.484375 225.035156 C 233.445312 224.636719 233.332031 224.257812 233.140625 223.902344 C 232.953125 223.550781 232.703125 223.246094 232.390625 222.988281 Z M 157.855469 159.765625 C 157.433594 159.195312 157.152344 158.566406 157.019531 157.867188 C 156.886719 157.171875 156.910156 156.484375 157.09375 155.796875 C 157.328125 154.917969 157.738281 154.132812 158.332031 153.441406 C 158.925781 152.75 159.636719 152.226562 160.472656 151.863281 C 163.539062 150.453125 166.074219 153.925781 166.660156 154.210938 C 166.804688 154.378906 166.964844 154.53125 167.140625 154.667969 C 167.316406 154.804688 167.503906 154.917969 167.703125 155.011719 C 167.90625 155.105469 168.113281 155.179688 168.332031 155.226562 C 168.546875 155.273438 168.769531 155.300781 168.988281 155.300781 C 169.210938 155.300781 169.433594 155.273438 169.648438 155.226562 C 169.867188 155.179688 170.074219 155.105469 170.277344 155.011719 C 170.476562 154.917969 170.664062 154.804688 170.839844 154.667969 C 171.015625 154.53125 171.175781 154.378906 171.320312 154.210938 C 171.355469 154.171875 174.503906 150.484375 177.519531 151.863281 C 178.355469 152.226562 179.066406 152.75 179.660156 153.441406 C 180.253906 154.132812 180.664062 154.917969 180.898438 155.796875 C 181.082031 156.484375 181.105469 157.171875 180.972656 157.867188 C 180.839844 158.5625 180.5625 159.195312 180.140625 159.765625 C 176.613281 163.578125 172.898438 167.203125 169 170.636719 C 165.101562 167.203125 161.386719 163.578125 157.855469 159.765625 Z M 211.316406 268.417969 L 187.988281 268.417969 L 187.988281 245.839844 C 187.988281 245.21875 187.957031 244.601562 187.898438 243.980469 C 187.835938 243.363281 187.742188 242.75 187.621094 242.136719 C 187.5 241.527344 187.351562 240.925781 187.167969 240.332031 C 186.988281 239.738281 186.777344 239.152344 186.539062 238.578125 C 186.304688 238.003906 186.035156 237.441406 185.742188 236.894531 C 185.449219 236.347656 185.132812 235.8125 184.785156 235.296875 C 184.441406 234.78125 184.070312 234.28125 183.675781 233.800781 C 183.28125 233.320312 182.863281 232.859375 182.425781 232.421875 C 181.984375 231.980469 181.523438 231.566406 181.042969 231.171875 C 180.5625 230.777344 180.066406 230.40625 179.546875 230.0625 C 179.03125 229.714844 178.496094 229.398438 177.949219 229.105469 C 177.402344 228.8125 176.839844 228.546875 176.265625 228.308594 C 175.691406 228.070312 175.105469 227.859375 174.511719 227.679688 C 173.917969 227.5 173.316406 227.351562 172.703125 227.226562 C 172.09375 227.105469 171.480469 227.015625 170.863281 226.957031 C 170.242188 226.894531 169.625 226.863281 169 226.863281 C 168.378906 226.863281 167.761719 226.894531 167.140625 226.957031 C 166.523438 227.015625 165.910156 227.105469 165.300781 227.226562 C 164.6875 227.351562 164.085938 227.5 163.492188 227.679688 C 162.898438 227.859375 162.3125 228.070312 161.738281 228.308594 C 161.164062 228.546875 160.601562 228.8125 160.054688 229.105469 C 159.503906 229.398438 158.972656 229.714844 158.457031 230.0625 C 157.9375 230.40625 157.441406 230.777344 156.960938 231.171875 C 156.480469 231.566406 156.019531 231.980469 155.578125 232.421875 C 155.140625 232.859375 154.722656 233.320312 154.328125 233.800781 C 153.933594 234.28125 153.5625 234.78125 153.21875 235.296875 C 152.871094 235.8125 152.554688 236.347656 152.261719 236.894531 C 151.964844 237.441406 151.699219 238.003906 151.460938 238.578125 C 151.226562 239.152344 151.015625 239.738281 150.835938 240.332031 C 150.652344 240.925781 150.503906 241.527344 150.382812 242.136719 C 150.261719 242.75 150.167969 243.363281 150.105469 243.980469 C 150.046875 244.601562 150.015625 245.21875 150.015625 245.839844 L 150.015625 268.417969 L 126.679688 268.417969 L 126.679688 213.492188 L 169 178.628906 L 211.320312 213.492188 Z M 211.316406 268.417969 " fill-opacity="1" fill-rule="nonzero"/></g></svg>