<svg xmlns="http://www.w3.org/2000/svg" xmlns:xlink="http://www.w3.org/1999/xlink" width="450" zoomAndPan="magnify" viewBox="0 0 337.5 311.25" height="415" preserveAspectRatio="xMidYMid meet" version="1.0"><defs><g/><clipPath id="26659c3739"><path d="M 223 116.609375 L 224 116.609375 L 224 122 L 223 122 Z M 223 116.609375 " clip-rule="nonzero"/></clipPath><clipPath id="ab2dfccaa6"><path d="M 244 143 L 250.121094 143 L 250.121094 144.027344 L 244 144.027344 Z M 244 143 " clip-rule="nonzero"/></clipPath><clipPath id="53792261a6"><path d="M 196.535156 143 L 202 143 L 202 144.027344 L 196.535156 144.027344 Z M 196.535156 143 " clip-rule="nonzero"/></clipPath></defs><g fill="#41729f" fill-opacity="1"><g transform="translate(37.903721, 154.947932)"><g><path d="M 24.671875 -26.296875 L 24.671875 0 L 22.890625 0 C 22.609375 0 22.367188 -0.046875 22.171875 -0.140625 C 21.984375 -0.242188 21.800781 -0.410156 21.625 -0.640625 L 6.40625 -20.46875 C 6.425781 -20.15625 6.441406 -19.851562 6.453125 -19.5625 C 6.472656 -19.269531 6.484375 -18.992188 6.484375 -18.734375 L 6.484375 0 L 3.359375 0 L 3.359375 -26.296875 L 5.1875 -26.296875 C 5.351562 -26.296875 5.488281 -26.285156 5.59375 -26.265625 C 5.707031 -26.253906 5.804688 -26.222656 5.890625 -26.171875 C 5.972656 -26.128906 6.054688 -26.066406 6.140625 -25.984375 C 6.234375 -25.910156 6.328125 -25.8125 6.421875 -25.6875 L 21.640625 -5.890625 C 21.609375 -6.210938 21.582031 -6.519531 21.5625 -6.8125 C 21.550781 -7.113281 21.546875 -7.398438 21.546875 -7.671875 L 21.546875 -26.296875 Z M 24.671875 -26.296875 "/></g></g></g><g fill="#41729f" fill-opacity="1"><g transform="translate(75.130859, 154.947932)"><g><path d="M 19.578125 -2.90625 L 19.5625 0 L 3.359375 0 L 3.359375 -26.296875 L 19.5625 -26.296875 L 19.5625 -23.390625 L 6.921875 -23.390625 L 6.921875 -14.65625 L 17.15625 -14.65625 L 17.15625 -11.875 L 6.921875 -11.875 L 6.921875 -2.90625 Z M 19.578125 -2.90625 "/></g></g></g><g fill="#41729f" fill-opacity="1"><g transform="translate(105.533558, 154.947932)"><g><path d="M 37.4375 -26.296875 L 29.234375 0 L 26.046875 0 L 19.375 -20.0625 C 19.3125 -20.257812 19.253906 -20.46875 19.203125 -20.6875 C 19.148438 -20.90625 19.09375 -21.132812 19.03125 -21.375 C 18.96875 -21.132812 18.90625 -20.90625 18.84375 -20.6875 C 18.78125 -20.46875 18.71875 -20.257812 18.65625 -20.0625 L 11.96875 0 L 8.765625 0 L 0.5625 -26.296875 L 3.53125 -26.296875 C 3.84375 -26.296875 4.101562 -26.21875 4.3125 -26.0625 C 4.53125 -25.90625 4.671875 -25.703125 4.734375 -25.453125 L 10.171875 -7.171875 C 10.253906 -6.847656 10.332031 -6.492188 10.40625 -6.109375 C 10.488281 -5.734375 10.566406 -5.332031 10.640625 -4.90625 C 10.722656 -5.332031 10.8125 -5.738281 10.90625 -6.125 C 11 -6.507812 11.101562 -6.859375 11.21875 -7.171875 L 17.390625 -25.453125 C 17.460938 -25.660156 17.609375 -25.851562 17.828125 -26.03125 C 18.046875 -26.207031 18.304688 -26.296875 18.609375 -26.296875 L 19.640625 -26.296875 C 19.953125 -26.296875 20.207031 -26.21875 20.40625 -26.0625 C 20.601562 -25.90625 20.75 -25.703125 20.84375 -25.453125 L 27.015625 -7.171875 C 27.117188 -6.859375 27.21875 -6.515625 27.3125 -6.140625 C 27.40625 -5.773438 27.492188 -5.390625 27.578125 -4.984375 C 27.640625 -5.390625 27.707031 -5.773438 27.78125 -6.140625 C 27.851562 -6.515625 27.929688 -6.859375 28.015625 -7.171875 L 33.46875 -25.453125 C 33.53125 -25.671875 33.664062 -25.863281 33.875 -26.03125 C 34.09375 -26.207031 34.359375 -26.296875 34.671875 -26.296875 Z M 37.4375 -26.296875 "/></g></g></g><g fill="#41729f" fill-opacity="1"><g transform="translate(152.74051, 154.947932)"><g/></g></g><g fill="#41729f" fill-opacity="1"><g transform="translate(171.347218, 154.947932)"><g><path d="M 24.671875 -26.296875 L 24.671875 0 L 21.109375 0 L 21.109375 -11.96875 L 6.921875 -11.96875 L 6.921875 0 L 3.359375 0 L 3.359375 -26.296875 L 6.921875 -26.296875 L 6.921875 -14.578125 L 21.109375 -14.578125 L 21.109375 -26.296875 Z M 24.671875 -26.296875 "/></g></g></g><g fill="#41729f" fill-opacity="1"><g transform="translate(208.574356, 154.947932)"><g><path d="M 27.65625 -13.140625 C 27.65625 -11.171875 27.34375 -9.363281 26.71875 -7.71875 C 26.09375 -6.070312 25.210938 -4.65625 24.078125 -3.46875 C 22.941406 -2.28125 21.570312 -1.359375 19.96875 -0.703125 C 18.375 -0.046875 16.613281 0.28125 14.6875 0.28125 C 12.75 0.28125 10.984375 -0.046875 9.390625 -0.703125 C 7.804688 -1.359375 6.441406 -2.28125 5.296875 -3.46875 C 4.160156 -4.65625 3.28125 -6.070312 2.65625 -7.71875 C 2.03125 -9.363281 1.71875 -11.171875 1.71875 -13.140625 C 1.71875 -15.109375 2.03125 -16.914062 2.65625 -18.5625 C 3.28125 -20.207031 4.160156 -21.625 5.296875 -22.8125 C 6.441406 -24.007812 7.804688 -24.9375 9.390625 -25.59375 C 10.984375 -26.257812 12.75 -26.59375 14.6875 -26.59375 C 16.613281 -26.59375 18.375 -26.257812 19.96875 -25.59375 C 21.570312 -24.9375 22.941406 -24.007812 24.078125 -22.8125 C 25.210938 -21.625 26.09375 -20.207031 26.71875 -18.5625 C 27.34375 -16.914062 27.65625 -15.109375 27.65625 -13.140625 Z M 24 -13.140625 C 24 -14.753906 23.78125 -16.203125 23.34375 -17.484375 C 22.90625 -18.773438 22.28125 -19.863281 21.46875 -20.75 C 20.664062 -21.632812 19.6875 -22.316406 18.53125 -22.796875 C 17.382812 -23.273438 16.101562 -23.515625 14.6875 -23.515625 C 13.28125 -23.515625 12 -23.273438 10.84375 -22.796875 C 9.695312 -22.316406 8.71875 -21.632812 7.90625 -20.75 C 7.09375 -19.863281 6.460938 -18.773438 6.015625 -17.484375 C 5.578125 -16.203125 5.359375 -14.753906 5.359375 -13.140625 C 5.359375 -11.523438 5.578125 -10.078125 6.015625 -8.796875 C 6.460938 -7.515625 7.09375 -6.429688 7.90625 -5.546875 C 8.71875 -4.660156 9.695312 -3.984375 10.84375 -3.515625 C 12 -3.046875 13.28125 -2.8125 14.6875 -2.8125 C 16.101562 -2.8125 17.382812 -3.046875 18.53125 -3.515625 C 19.6875 -3.984375 20.664062 -4.660156 21.46875 -5.546875 C 22.28125 -6.429688 22.90625 -7.515625 23.34375 -8.796875 C 23.78125 -10.078125 24 -11.523438 24 -13.140625 Z M 24 -13.140625 "/></g></g></g><g fill="#41729f" fill-opacity="1"><g transform="translate(247.159032, 154.947932)"><g><path d="M 11.125 -12.65625 C 12.132812 -12.65625 13.023438 -12.789062 13.796875 -13.0625 C 14.578125 -13.332031 15.234375 -13.707031 15.765625 -14.1875 C 16.304688 -14.675781 16.707031 -15.253906 16.96875 -15.921875 C 17.238281 -16.597656 17.375 -17.34375 17.375 -18.15625 C 17.375 -19.820312 16.859375 -21.125 15.828125 -22.0625 C 14.796875 -23.007812 13.226562 -23.484375 11.125 -23.484375 L 6.90625 -23.484375 L 6.90625 -12.65625 Z M 11.125 -26.296875 C 12.78125 -26.296875 14.222656 -26.101562 15.453125 -25.71875 C 16.691406 -25.332031 17.710938 -24.785156 18.515625 -24.078125 C 19.328125 -23.367188 19.929688 -22.507812 20.328125 -21.5 C 20.722656 -20.5 20.921875 -19.382812 20.921875 -18.15625 C 20.921875 -16.925781 20.707031 -15.800781 20.28125 -14.78125 C 19.851562 -13.769531 19.222656 -12.894531 18.390625 -12.15625 C 17.566406 -11.425781 16.546875 -10.859375 15.328125 -10.453125 C 14.109375 -10.046875 12.707031 -9.84375 11.125 -9.84375 L 6.90625 -9.84375 L 6.90625 0 L 3.359375 0 L 3.359375 -26.296875 Z M 11.125 -26.296875 "/></g></g></g><g fill="#41729f" fill-opacity="1"><g transform="translate(278.40561, 154.947932)"><g><path d="M 19.578125 -2.90625 L 19.5625 0 L 3.359375 0 L 3.359375 -26.296875 L 19.5625 -26.296875 L 19.5625 -23.390625 L 6.921875 -23.390625 L 6.921875 -14.65625 L 17.15625 -14.65625 L 17.15625 -11.875 L 6.921875 -11.875 L 6.921875 -2.90625 Z M 19.578125 -2.90625 "/></g></g></g><g fill="#5885af" fill-opacity="1"><g transform="translate(41.600472, 188.911824)"><g><path d="M 10.5 -18.625 C 11.863281 -18.625 13.207031 -18.34375 14.53125 -17.78125 C 15.863281 -17.21875 17 -16.460938 17.9375 -15.515625 L 15.21875 -12.296875 C 14.625 -13.035156 13.90625 -13.617188 13.0625 -14.046875 C 12.226562 -14.472656 11.398438 -14.6875 10.578125 -14.6875 C 9.117188 -14.6875 7.894531 -14.171875 6.90625 -13.140625 C 5.925781 -12.117188 5.4375 -10.851562 5.4375 -9.34375 C 5.4375 -7.789062 5.925781 -6.492188 6.90625 -5.453125 C 7.894531 -4.421875 9.117188 -3.90625 10.578125 -3.90625 C 11.347656 -3.90625 12.148438 -4.097656 12.984375 -4.484375 C 13.828125 -4.867188 14.570312 -5.394531 15.21875 -6.0625 L 17.96875 -3.171875 C 16.957031 -2.148438 15.769531 -1.328125 14.40625 -0.703125 C 13.050781 -0.0859375 11.695312 0.21875 10.34375 0.21875 C 7.5625 0.21875 5.25 -0.6875 3.40625 -2.5 C 1.5625 -4.3125 0.640625 -6.570312 0.640625 -9.28125 C 0.640625 -11.9375 1.578125 -14.15625 3.453125 -15.9375 C 5.335938 -17.726562 7.6875 -18.625 10.5 -18.625 Z M 10.5 -18.625 "/></g></g></g><g fill="#5885af" fill-opacity="1"><g transform="translate(68.495632, 188.911824)"><g><path d="M 14.109375 -3.40625 L 6.046875 -3.40625 L 4.6875 0 L -0.125 0 L 7.828125 -18.46875 L 12.65625 -18.46875 L 20.4375 0 L 15.421875 0 Z M 12.734375 -6.96875 L 10.109375 -13.796875 L 7.40625 -6.96875 Z M 12.734375 -6.96875 "/></g></g></g><g fill="#5885af" fill-opacity="1"><g transform="translate(97.447276, 188.911824)"><g><path d="M 12.96875 0 L 10.234375 -5.203125 L 6.546875 -5.203125 L 6.546875 0 L 1.84375 0 L 1.84375 -18.46875 L 10.109375 -18.46875 C 12.546875 -18.46875 14.429688 -17.90625 15.765625 -16.78125 C 17.109375 -15.664062 17.78125 -14.082031 17.78125 -12.03125 C 17.78125 -9.175781 16.660156 -7.195312 14.421875 -6.09375 L 18.296875 0 Z M 6.546875 -8.890625 L 10.109375 -8.890625 C 11.117188 -8.890625 11.90625 -9.144531 12.46875 -9.65625 C 13.03125 -10.164062 13.3125 -10.90625 13.3125 -11.875 C 13.3125 -12.820312 13.03125 -13.539062 12.46875 -14.03125 C 11.90625 -14.519531 11.117188 -14.765625 10.109375 -14.765625 L 6.546875 -14.765625 Z M 6.546875 -8.890625 "/></g></g></g><g fill="#5885af" fill-opacity="1"><g transform="translate(125.186128, 188.911824)"><g><path d="M 16.296875 -14.765625 L 6.546875 -14.765625 L 6.546875 -11.109375 L 15.34375 -11.109375 L 15.34375 -7.40625 L 6.546875 -7.40625 L 6.546875 -3.6875 L 16.59375 -3.6875 L 16.59375 0 L 1.84375 0 L 1.84375 -18.46875 L 16.296875 -18.46875 Z M 16.296875 -14.765625 "/></g></g></g><g fill="#5885af" fill-opacity="1"><g transform="translate(151.606723, 188.911824)"><g><path d="M 14.109375 -9.390625 L 18.171875 -9.390625 L 18.171875 -2.1875 C 17.171875 -1.488281 15.960938 -0.910156 14.546875 -0.453125 C 13.128906 -0.00390625 11.78125 0.21875 10.5 0.21875 C 7.6875 0.21875 5.335938 -0.679688 3.453125 -2.484375 C 1.578125 -4.296875 0.640625 -6.546875 0.640625 -9.234375 C 0.640625 -11.898438 1.601562 -14.128906 3.53125 -15.921875 C 5.46875 -17.722656 7.894531 -18.625 10.8125 -18.625 C 12.1875 -18.625 13.550781 -18.375 14.90625 -17.875 C 16.257812 -17.382812 17.410156 -16.71875 18.359375 -15.875 L 15.71875 -12.6875 C 15.050781 -13.300781 14.273438 -13.785156 13.390625 -14.140625 C 12.515625 -14.503906 11.644531 -14.6875 10.78125 -14.6875 C 9.269531 -14.6875 8 -14.160156 6.96875 -13.109375 C 5.945312 -12.066406 5.4375 -10.773438 5.4375 -9.234375 C 5.4375 -7.671875 5.953125 -6.359375 6.984375 -5.296875 C 8.023438 -4.242188 9.3125 -3.71875 10.84375 -3.71875 C 11.820312 -3.71875 12.910156 -4.015625 14.109375 -4.609375 Z M 14.109375 -9.390625 "/></g></g></g><g fill="#5885af" fill-opacity="1"><g transform="translate(179.846499, 188.911824)"><g><path d="M 6.546875 0 L 1.84375 0 L 1.84375 -18.46875 L 6.546875 -18.46875 Z M 6.546875 0 "/></g></g></g><g fill="#5885af" fill-opacity="1"><g transform="translate(196.881091, 188.911824)"><g><path d="M 12 0 L 7.140625 0 L -0.03125 -18.46875 L 4.984375 -18.46875 L 9.703125 -4.875 L 14.421875 -18.46875 L 19.25 -18.46875 Z M 12 0 "/></g></g></g><g fill="#5885af" fill-opacity="1"><g transform="translate(224.751779, 188.911824)"><g><path d="M 16.296875 -14.765625 L 6.546875 -14.765625 L 6.546875 -11.109375 L 15.34375 -11.109375 L 15.34375 -7.40625 L 6.546875 -7.40625 L 6.546875 -3.6875 L 16.59375 -3.6875 L 16.59375 0 L 1.84375 0 L 1.84375 -18.46875 L 16.296875 -18.46875 Z M 16.296875 -14.765625 "/></g></g></g><g fill="#5885af" fill-opacity="1"><g transform="translate(251.172368, 188.911824)"><g><path d="M 12.96875 0 L 10.234375 -5.203125 L 6.546875 -5.203125 L 6.546875 0 L 1.84375 0 L 1.84375 -18.46875 L 10.109375 -18.46875 C 12.546875 -18.46875 14.429688 -17.90625 15.765625 -16.78125 C 17.109375 -15.664062 17.78125 -14.082031 17.78125 -12.03125 C 17.78125 -9.175781 16.660156 -7.195312 14.421875 -6.09375 L 18.296875 0 Z M 6.546875 -8.890625 L 10.109375 -8.890625 C 11.117188 -8.890625 11.90625 -9.144531 12.46875 -9.65625 C 13.03125 -10.164062 13.3125 -10.90625 13.3125 -11.875 C 13.3125 -12.820312 13.03125 -13.539062 12.46875 -14.03125 C 11.90625 -14.519531 11.117188 -14.765625 10.109375 -14.765625 L 6.546875 -14.765625 Z M 6.546875 -8.890625 "/></g></g></g><g fill="#5885af" fill-opacity="1"><g transform="translate(278.911226, 188.911824)"><g><path d="M 8.9375 -18.671875 C 11.695312 -18.671875 14.125 -17.984375 16.21875 -16.609375 L 14.453125 -12.953125 C 13.484375 -13.515625 12.441406 -13.972656 11.328125 -14.328125 C 10.222656 -14.691406 9.296875 -14.875 8.546875 -14.875 C 7.191406 -14.875 6.515625 -14.425781 6.515625 -13.53125 C 6.515625 -12.945312 6.847656 -12.476562 7.515625 -12.125 C 8.179688 -11.78125 8.992188 -11.476562 9.953125 -11.21875 C 10.910156 -10.96875 11.867188 -10.660156 12.828125 -10.296875 C 13.785156 -9.941406 14.597656 -9.359375 15.265625 -8.546875 C 15.929688 -7.734375 16.265625 -6.710938 16.265625 -5.484375 C 16.265625 -3.710938 15.570312 -2.328125 14.1875 -1.328125 C 12.800781 -0.335938 11.035156 0.15625 8.890625 0.15625 C 7.359375 0.15625 5.84375 -0.101562 4.34375 -0.625 C 2.851562 -1.15625 1.554688 -1.878906 0.453125 -2.796875 L 2.265625 -6.40625 C 3.203125 -5.601562 4.300781 -4.941406 5.5625 -4.421875 C 6.832031 -3.898438 7.957031 -3.640625 8.9375 -3.640625 C 9.695312 -3.640625 10.285156 -3.773438 10.703125 -4.046875 C 11.128906 -4.316406 11.34375 -4.71875 11.34375 -5.25 C 11.34375 -5.757812 11.097656 -6.1875 10.609375 -6.53125 C 10.128906 -6.875 9.53125 -7.128906 8.8125 -7.296875 C 8.09375 -7.460938 7.3125 -7.6875 6.46875 -7.96875 C 5.625 -8.25 4.835938 -8.554688 4.109375 -8.890625 C 3.390625 -9.222656 2.785156 -9.753906 2.296875 -10.484375 C 1.816406 -11.210938 1.578125 -12.085938 1.578125 -13.109375 C 1.578125 -14.796875 2.25 -16.144531 3.59375 -17.15625 C 4.945312 -18.164062 6.726562 -18.671875 8.9375 -18.671875 Z M 8.9375 -18.671875 "/></g></g></g><path fill="#c3e0e5" d="M 233.949219 127.238281 L 236.679688 122.699219 L 237.203125 123.050781 L 234.144531 127.371094 L 233.949219 127.238281 " fill-opacity="1" fill-rule="nonzero"/><path fill="#c3e0e5" d="M 239.359375 132.609375 L 243.597656 129.476562 L 243.949219 130 L 239.492188 132.808594 L 239.359375 132.609375 " fill-opacity="1" fill-rule="nonzero"/><path fill="#c3e0e5" d="M 242.332031 139.671875 L 247.433594 138.417969 L 247.558594 139.039062 L 242.378906 139.90625 L 242.332031 139.671875 " fill-opacity="1" fill-rule="nonzero"/><path fill="#c3e0e5" d="M 199.066406 139.253906 L 199.1875 138.628906 L 204.296875 139.839844 L 204.253906 140.074219 L 199.066406 139.253906 " fill-opacity="1" fill-rule="nonzero"/><path fill="#c3e0e5" d="M 202.945312 129.65625 L 207.210938 132.753906 L 207.078125 132.953125 L 202.597656 130.183594 L 202.945312 129.65625 " fill-opacity="1" fill-rule="nonzero"/><path fill="#c3e0e5" d="M 212.378906 127.46875 L 209.285156 123.175781 L 209.804688 122.820312 L 212.574219 127.335938 L 212.378906 127.46875 " fill-opacity="1" fill-rule="nonzero"/><path fill="#c3e0e5" d="M 218.722656 119.164062 L 219.578125 124.410156 L 219.347656 124.457031 L 218.109375 119.289062 L 218.722656 119.164062 " fill-opacity="1" fill-rule="nonzero"/><path fill="#c3e0e5" d="M 227.730469 119.125 L 228.34375 119.246094 L 227.152344 124.421875 L 226.917969 124.378906 L 227.730469 119.125 " fill-opacity="1" fill-rule="nonzero"/><g clip-path="url(#26659c3739)"><path fill="#c3e0e5" d="M 223.644531 116.609375 L 223.449219 121.878906 L 223.214844 121.878906 L 223.019531 116.609375 L 223.644531 116.609375 " fill-opacity="1" fill-rule="nonzero"/></g><path fill="#c3e0e5" d="M 231.46875 123.496094 L 233.277344 118.550781 L 233.855469 118.792969 L 231.6875 123.585938 L 231.46875 123.496094 " fill-opacity="1" fill-rule="nonzero"/><path fill="#c3e0e5" d="M 238.480469 128.1875 L 242.023438 124.320312 L 242.464844 124.769531 L 238.648438 128.359375 L 238.480469 128.1875 " fill-opacity="1" fill-rule="nonzero"/><path fill="#c3e0e5" d="M 243.28125 135.464844 L 243.191406 135.246094 L 247.921875 133.046875 L 248.160156 133.632812 L 243.28125 135.464844 " fill-opacity="1" fill-rule="nonzero"/><g clip-path="url(#ab2dfccaa6)"><path fill="#c3e0e5" d="M 244.875 143.589844 L 250.078125 143.390625 L 250.078125 144.027344 L 244.875 143.828125 L 244.875 143.589844 " fill-opacity="1" fill-rule="nonzero"/></g><g clip-path="url(#53792261a6)"><path fill="#c3e0e5" d="M 196.585938 143.390625 L 201.789062 143.589844 L 201.789062 143.828125 L 196.585938 144.027344 L 196.585938 143.390625 " fill-opacity="1" fill-rule="nonzero"/></g><path fill="#c3e0e5" d="M 203.382812 135.464844 L 198.503906 133.632812 L 198.742188 133.046875 L 203.472656 135.246094 L 203.382812 135.464844 " fill-opacity="1" fill-rule="nonzero"/><path fill="#c3e0e5" d="M 204.199219 124.769531 L 204.640625 124.320312 L 208.183594 128.1875 L 208.015625 128.359375 L 204.199219 124.769531 " fill-opacity="1" fill-rule="nonzero"/><path fill="#c3e0e5" d="M 213.386719 118.550781 L 215.199219 123.496094 L 214.976562 123.585938 L 212.808594 118.792969 L 213.386719 118.550781 " fill-opacity="1" fill-rule="nonzero"/></svg>