<svg xmlns="http://www.w3.org/2000/svg" xmlns:xlink="http://www.w3.org/1999/xlink" width="450" zoomAndPan="magnify" viewBox="0 0 337.5 311.25" height="415" preserveAspectRatio="xMidYMid meet" version="1.0"><defs><g/><clipPath id="a985afff07"><path d="M 81.988281 58.855469 L 255.511719 58.855469 L 255.511719 232.378906 L 81.988281 232.378906 Z M 81.988281 58.855469 " clip-rule="nonzero"/></clipPath><clipPath id="8ced69445b"><path d="M 168.75 58.855469 C 120.832031 58.855469 81.988281 97.703125 81.988281 145.617188 C 81.988281 193.535156 120.832031 232.378906 168.75 232.378906 C 216.667969 232.378906 255.511719 193.535156 255.511719 145.617188 C 255.511719 97.703125 216.667969 58.855469 168.75 58.855469 " clip-rule="nonzero"/></clipPath><clipPath id="a7829dcc7a"><path d="M 166 4.761719 L 171 4.761719 L 171 36 L 166 36 Z M 166 4.761719 " clip-rule="nonzero"/></clipPath><clipPath id="dc022268f0"><path d="M 294 159 L 324.8125 159 L 324.8125 162.867188 L 294 162.867188 Z M 294 159 " clip-rule="nonzero"/></clipPath><clipPath id="0dc57e63ab"><path d="M 12.351562 159 L 43 159 L 43 162.867188 L 12.351562 162.867188 Z M 12.351562 159 " clip-rule="nonzero"/></clipPath><clipPath id="92a20f0e2b"><path d="M 104 113.242188 L 233.523438 113.242188 L 233.523438 242.875 L 104 242.875 Z M 104 113.242188 " clip-rule="nonzero"/></clipPath></defs><g clip-path="url(#a985afff07)"><g clip-path="url(#8ced69445b)"><path fill="#c3e0e5" d="M 81.988281 58.855469 L 255.511719 58.855469 L 255.511719 232.378906 L 81.988281 232.378906 Z M 81.988281 58.855469 " fill-opacity="1" fill-rule="nonzero"/></g></g><path fill="#c3e0e5" d="M 230.511719 66.0625 L 246.445312 39.882812 L 249.492188 41.902344 L 231.664062 66.828125 L 230.511719 66.0625 " fill-opacity="1" fill-rule="nonzero"/><path fill="#c3e0e5" d="M 262.074219 97.03125 L 286.792969 78.953125 L 288.835938 81.988281 L 262.847656 98.183594 L 262.074219 97.03125 " fill-opacity="1" fill-rule="nonzero"/><path fill="#c3e0e5" d="M 279.402344 137.746094 L 309.148438 130.523438 L 309.875 134.113281 L 279.679688 139.105469 L 279.402344 137.746094 " fill-opacity="1" fill-rule="nonzero"/><path fill="#c3e0e5" d="M 27.101562 135.347656 L 27.796875 131.75 L 57.601562 138.714844 L 57.339844 140.078125 L 27.101562 135.347656 " fill-opacity="1" fill-rule="nonzero"/><path fill="#c3e0e5" d="M 49.703125 79.988281 L 74.578125 97.851562 L 73.8125 99.007812 L 47.683594 83.046875 L 49.703125 79.988281 " fill-opacity="1" fill-rule="nonzero"/><path fill="#c3e0e5" d="M 104.722656 67.386719 L 86.679688 42.617188 L 89.710938 40.566406 L 105.867188 66.609375 L 104.722656 67.386719 " fill-opacity="1" fill-rule="nonzero"/><path fill="#c3e0e5" d="M 141.726562 19.484375 L 146.710938 49.742188 L 145.355469 50.019531 L 138.140625 20.214844 L 141.726562 19.484375 " fill-opacity="1" fill-rule="nonzero"/><path fill="#c3e0e5" d="M 194.246094 19.253906 L 197.832031 19.953125 L 190.882812 49.816406 L 189.523438 49.554688 L 194.246094 19.253906 " fill-opacity="1" fill-rule="nonzero"/><g clip-path="url(#a7829dcc7a)"><path fill="#c3e0e5" d="M 170.429688 4.753906 L 169.292969 35.152344 L 167.910156 35.152344 L 166.773438 4.753906 L 170.429688 4.753906 " fill-opacity="1" fill-rule="nonzero"/></g><path fill="#c3e0e5" d="M 216.042969 44.46875 L 226.601562 15.949219 L 229.980469 17.351562 L 217.320312 45 L 216.042969 44.46875 " fill-opacity="1" fill-rule="nonzero"/><path fill="#c3e0e5" d="M 256.953125 71.53125 L 277.601562 49.234375 L 280.1875 51.824219 L 257.929688 72.511719 L 256.953125 71.53125 " fill-opacity="1" fill-rule="nonzero"/><path fill="#c3e0e5" d="M 284.941406 113.503906 L 284.414062 112.226562 L 312.003906 99.542969 L 313.40625 102.925781 L 284.941406 113.503906 " fill-opacity="1" fill-rule="nonzero"/><g clip-path="url(#dc022268f0)"><path fill="#c3e0e5" d="M 294.242188 160.347656 L 324.578125 159.210938 L 324.578125 162.875 L 294.242188 161.734375 L 294.242188 160.347656 " fill-opacity="1" fill-rule="nonzero"/></g><g clip-path="url(#0dc57e63ab)"><path fill="#c3e0e5" d="M 12.628906 159.210938 L 42.964844 160.347656 L 42.964844 161.734375 L 12.628906 162.875 L 12.628906 159.210938 " fill-opacity="1" fill-rule="nonzero"/></g><path fill="#c3e0e5" d="M 52.261719 113.503906 L 23.800781 102.925781 L 25.199219 99.542969 L 52.792969 112.226562 L 52.261719 113.503906 " fill-opacity="1" fill-rule="nonzero"/><path fill="#c3e0e5" d="M 57.019531 51.824219 L 59.601562 49.234375 L 80.253906 71.53125 L 79.273438 72.511719 L 57.019531 51.824219 " fill-opacity="1" fill-rule="nonzero"/><path fill="#c3e0e5" d="M 110.601562 15.949219 L 121.164062 44.46875 L 119.882812 45 L 107.222656 17.351562 L 110.601562 15.949219 " fill-opacity="1" fill-rule="nonzero"/><g clip-path="url(#92a20f0e2b)"><path fill="#274472" d="M 232.390625 191.390625 L 173.625 142.980469 C 177.601562 139.480469 181.371094 135.765625 184.933594 131.835938 C 185.921875 130.542969 186.574219 129.09375 186.898438 127.496094 C 187.222656 125.898438 187.179688 124.3125 186.773438 122.734375 C 186.550781 121.859375 186.234375 121.015625 185.820312 120.210938 C 185.410156 119.40625 184.910156 118.660156 184.328125 117.96875 C 183.746094 117.277344 183.09375 116.65625 182.371094 116.113281 C 181.648438 115.570312 180.871094 115.113281 180.046875 114.746094 C 179.136719 114.359375 178.191406 114.109375 177.207031 113.988281 C 176.226562 113.867188 175.25 113.886719 174.273438 114.042969 C 173.296875 114.199219 172.359375 114.484375 171.464844 114.902344 C 170.570312 115.320312 169.746094 115.855469 169 116.503906 C 168.253906 115.855469 167.433594 115.324219 166.539062 114.90625 C 165.640625 114.488281 164.707031 114.203125 163.730469 114.046875 C 162.753906 113.890625 161.777344 113.875 160.796875 113.992188 C 159.8125 114.109375 158.867188 114.363281 157.957031 114.746094 C 157.132812 115.113281 156.355469 115.570312 155.632812 116.113281 C 154.910156 116.65625 154.257812 117.277344 153.675781 117.96875 C 153.09375 118.660156 152.59375 119.40625 152.183594 120.210938 C 151.769531 121.015625 151.453125 121.859375 151.230469 122.734375 C 150.824219 124.3125 150.78125 125.898438 151.105469 127.496094 C 151.429688 129.09375 152.082031 130.542969 153.070312 131.835938 C 156.632812 135.765625 160.402344 139.480469 164.378906 142.980469 L 105.613281 191.390625 C 105.300781 191.644531 105.050781 191.953125 104.859375 192.304688 C 104.671875 192.660156 104.558594 193.039062 104.515625 193.4375 C 104.476562 193.839844 104.515625 194.230469 104.632812 194.617188 C 104.75 195 104.9375 195.347656 105.191406 195.660156 C 105.445312 195.972656 105.75 196.222656 106.105469 196.410156 C 106.460938 196.601562 106.835938 196.714844 107.238281 196.757812 C 107.636719 196.796875 108.03125 196.757812 108.414062 196.640625 C 108.800781 196.523438 109.148438 196.339844 109.460938 196.082031 L 120.632812 186.875 L 120.632812 239.824219 C 120.632812 240.226562 120.707031 240.613281 120.859375 240.988281 C 121.011719 241.363281 121.226562 241.691406 121.511719 241.980469 C 121.796875 242.265625 122.125 242.484375 122.496094 242.640625 C 122.871094 242.796875 123.257812 242.875 123.660156 242.875 L 153.042969 242.875 C 153.441406 242.871094 153.828125 242.796875 154.195312 242.640625 C 154.566406 242.488281 154.894531 242.269531 155.175781 241.988281 C 155.457031 241.703125 155.675781 241.378906 155.832031 241.007812 C 155.984375 240.636719 156.0625 240.253906 156.0625 239.851562 L 156.0625 214.21875 C 156.0625 213.371094 156.144531 212.527344 156.3125 211.695312 C 156.476562 210.863281 156.722656 210.054688 157.046875 209.269531 C 157.371094 208.484375 157.769531 207.738281 158.242188 207.03125 C 158.714844 206.324219 159.25 205.671875 159.851562 205.070312 C 160.453125 204.46875 161.105469 203.933594 161.8125 203.460938 C 162.519531 202.988281 163.265625 202.589844 164.050781 202.265625 C 164.835938 201.941406 165.644531 201.695312 166.476562 201.527344 C 167.3125 201.363281 168.152344 201.28125 169 201.28125 C 169.851562 201.28125 170.691406 201.363281 171.527344 201.527344 C 172.359375 201.695312 173.167969 201.941406 173.953125 202.265625 C 174.738281 202.589844 175.484375 202.988281 176.191406 203.460938 C 176.898438 203.933594 177.550781 204.46875 178.152344 205.070312 C 178.753906 205.671875 179.289062 206.324219 179.761719 207.03125 C 180.234375 207.738281 180.632812 208.484375 180.957031 209.269531 C 181.28125 210.054688 181.527344 210.863281 181.691406 211.695312 C 181.859375 212.527344 181.941406 213.371094 181.941406 214.21875 L 181.941406 239.824219 C 181.941406 240.222656 182.019531 240.609375 182.171875 240.976562 C 182.328125 241.347656 182.542969 241.675781 182.828125 241.957031 C 183.109375 242.242188 183.4375 242.460938 183.808594 242.613281 C 184.175781 242.765625 184.5625 242.84375 184.960938 242.84375 L 214.34375 242.84375 C 214.742188 242.84375 215.128906 242.765625 215.5 242.613281 C 215.871094 242.460938 216.199219 242.242188 216.480469 241.960938 C 216.765625 241.675781 216.984375 241.351562 217.136719 240.980469 C 217.292969 240.609375 217.367188 240.222656 217.371094 239.824219 L 217.371094 186.851562 L 228.542969 196.058594 C 228.855469 196.316406 229.203125 196.5 229.585938 196.617188 C 229.972656 196.734375 230.367188 196.769531 230.765625 196.730469 C 231.164062 196.691406 231.542969 196.578125 231.898438 196.386719 C 232.25 196.199219 232.558594 195.945312 232.8125 195.636719 C 233.066406 195.324219 233.253906 194.976562 233.367188 194.59375 C 233.484375 194.207031 233.523438 193.816406 233.484375 193.414062 C 233.445312 193.015625 233.332031 192.636719 233.140625 192.28125 C 232.953125 191.929688 232.703125 191.621094 232.390625 191.367188 Z M 157.855469 128.140625 C 157.433594 127.574219 157.152344 126.941406 157.019531 126.246094 C 156.886719 125.550781 156.910156 124.863281 157.09375 124.175781 C 157.328125 123.296875 157.738281 122.511719 158.332031 121.820312 C 158.925781 121.128906 159.636719 120.605469 160.472656 120.242188 C 163.539062 118.832031 166.074219 122.304688 166.660156 122.585938 C 166.804688 122.757812 166.964844 122.910156 167.140625 123.046875 C 167.316406 123.183594 167.503906 123.296875 167.703125 123.390625 C 167.90625 123.484375 168.113281 123.558594 168.332031 123.605469 C 168.546875 123.652344 168.769531 123.675781 168.988281 123.675781 C 169.210938 123.675781 169.433594 123.652344 169.648438 123.605469 C 169.867188 123.558594 170.074219 123.484375 170.277344 123.390625 C 170.476562 123.296875 170.664062 123.183594 170.839844 123.046875 C 171.015625 122.910156 171.175781 122.757812 171.320312 122.585938 C 171.355469 122.550781 174.503906 118.863281 177.519531 120.242188 C 178.355469 120.605469 179.066406 121.128906 179.660156 121.820312 C 180.253906 122.511719 180.664062 123.296875 180.898438 124.175781 C 181.082031 124.859375 181.105469 125.550781 180.972656 126.246094 C 180.839844 126.941406 180.5625 127.574219 180.140625 128.140625 C 176.613281 131.957031 172.898438 135.582031 169 139.015625 C 165.101562 135.582031 161.386719 131.957031 157.855469 128.140625 Z M 211.316406 236.796875 L 187.988281 236.796875 L 187.988281 214.21875 C 187.988281 213.597656 187.957031 212.976562 187.898438 212.359375 C 187.835938 211.742188 187.742188 211.125 187.621094 210.515625 C 187.5 209.90625 187.351562 209.304688 187.167969 208.710938 C 186.988281 208.117188 186.777344 207.53125 186.539062 206.957031 C 186.304688 206.382812 186.035156 205.820312 185.742188 205.273438 C 185.449219 204.726562 185.132812 204.191406 184.785156 203.675781 C 184.441406 203.160156 184.070312 202.660156 183.675781 202.179688 C 183.28125 201.699219 182.863281 201.238281 182.425781 200.800781 C 181.984375 200.359375 181.523438 199.945312 181.042969 199.550781 C 180.5625 199.15625 180.066406 198.785156 179.546875 198.441406 C 179.03125 198.09375 178.496094 197.777344 177.949219 197.484375 C 177.402344 197.191406 176.839844 196.925781 176.265625 196.6875 C 175.691406 196.449219 175.105469 196.238281 174.511719 196.058594 C 173.917969 195.878906 173.316406 195.726562 172.703125 195.605469 C 172.09375 195.484375 171.480469 195.394531 170.863281 195.332031 C 170.242188 195.273438 169.625 195.242188 169 195.242188 C 168.378906 195.242188 167.761719 195.273438 167.140625 195.332031 C 166.523438 195.394531 165.910156 195.484375 165.300781 195.605469 C 164.6875 195.726562 164.085938 195.878906 163.492188 196.058594 C 162.898438 196.238281 162.3125 196.449219 161.738281 196.6875 C 161.164062 196.925781 160.601562 197.191406 160.054688 197.484375 C 159.503906 197.777344 158.972656 198.09375 158.457031 198.441406 C 157.9375 198.785156 157.441406 199.15625 156.960938 199.550781 C 156.480469 199.945312 156.019531 200.359375 155.578125 200.800781 C 155.140625 201.238281 154.722656 201.699219 154.328125 202.179688 C 153.933594 202.660156 153.5625 203.160156 153.21875 203.675781 C 152.871094 204.191406 152.554688 204.726562 152.261719 205.273438 C 151.964844 205.820312 151.699219 206.382812 151.460938 206.957031 C 151.226562 207.53125 151.015625 208.117188 150.835938 208.710938 C 150.652344 209.304688 150.503906 209.90625 150.382812 210.515625 C 150.261719 211.125 150.167969 211.742188 150.105469 212.359375 C 150.046875 212.976562 150.015625 213.597656 150.015625 214.21875 L 150.015625 236.796875 L 126.679688 236.796875 L 126.679688 181.871094 L 169 147.007812 L 211.320312 181.871094 Z M 211.316406 236.796875 " fill-opacity="1" fill-rule="nonzero"/></g><g fill="#41729f" fill-opacity="1"><g transform="translate(47.369393, 275.325732)"><g><path d="M 22.875 -24.390625 L 22.875 0 L 21.234375 0 C 20.972656 0 20.753906 -0.0390625 20.578125 -0.125 C 20.398438 -0.21875 20.222656 -0.375 20.046875 -0.59375 L 5.9375 -18.984375 C 5.957031 -18.703125 5.972656 -18.421875 5.984375 -18.140625 C 6.003906 -17.867188 6.015625 -17.613281 6.015625 -17.375 L 6.015625 0 L 3.109375 0 L 3.109375 -24.390625 L 4.8125 -24.390625 C 4.957031 -24.390625 5.082031 -24.378906 5.1875 -24.359375 C 5.289062 -24.347656 5.378906 -24.320312 5.453125 -24.28125 C 5.535156 -24.238281 5.617188 -24.179688 5.703125 -24.109375 C 5.785156 -24.035156 5.867188 -23.941406 5.953125 -23.828125 L 20.078125 -5.46875 C 20.046875 -5.757812 20.019531 -6.039062 20 -6.3125 C 19.988281 -6.59375 19.984375 -6.859375 19.984375 -7.109375 L 19.984375 -24.390625 Z M 22.875 -24.390625 "/></g></g></g><g fill="#41729f" fill-opacity="1"><g transform="translate(81.903446, 275.325732)"><g><path d="M 18.15625 -2.6875 L 18.140625 0 L 3.109375 0 L 3.109375 -24.390625 L 18.140625 -24.390625 L 18.140625 -21.703125 L 6.421875 -21.703125 L 6.421875 -13.609375 L 15.921875 -13.609375 L 15.921875 -11.015625 L 6.421875 -11.015625 L 6.421875 -2.6875 Z M 18.15625 -2.6875 "/></g></g></g><g fill="#41729f" fill-opacity="1"><g transform="translate(110.106753, 275.325732)"><g><path d="M 34.734375 -24.390625 L 27.125 0 L 24.15625 0 L 17.984375 -18.609375 C 17.921875 -18.785156 17.863281 -18.972656 17.8125 -19.171875 C 17.757812 -19.378906 17.707031 -19.597656 17.65625 -19.828125 C 17.59375 -19.597656 17.53125 -19.378906 17.46875 -19.171875 C 17.414062 -18.972656 17.363281 -18.785156 17.3125 -18.609375 L 11.09375 0 L 8.140625 0 L 0.53125 -24.390625 L 3.265625 -24.390625 C 3.566406 -24.390625 3.816406 -24.316406 4.015625 -24.171875 C 4.210938 -24.023438 4.335938 -23.835938 4.390625 -23.609375 L 9.4375 -6.65625 C 9.507812 -6.351562 9.582031 -6.023438 9.65625 -5.671875 C 9.726562 -5.316406 9.800781 -4.941406 9.875 -4.546875 C 9.957031 -4.941406 10.039062 -5.316406 10.125 -5.671875 C 10.207031 -6.035156 10.300781 -6.363281 10.40625 -6.65625 L 16.140625 -23.609375 C 16.203125 -23.804688 16.332031 -23.984375 16.53125 -24.140625 C 16.738281 -24.304688 16.984375 -24.390625 17.265625 -24.390625 L 18.21875 -24.390625 C 18.507812 -24.390625 18.742188 -24.316406 18.921875 -24.171875 C 19.109375 -24.023438 19.25 -23.835938 19.34375 -23.609375 L 25.0625 -6.65625 C 25.164062 -6.363281 25.257812 -6.046875 25.34375 -5.703125 C 25.425781 -5.359375 25.507812 -5 25.59375 -4.625 C 25.644531 -5 25.703125 -5.359375 25.765625 -5.703125 C 25.835938 -6.046875 25.914062 -6.363281 26 -6.65625 L 31.046875 -23.609375 C 31.109375 -23.816406 31.238281 -24 31.4375 -24.15625 C 31.632812 -24.3125 31.875 -24.390625 32.15625 -24.390625 Z M 34.734375 -24.390625 "/></g></g></g><g fill="#41729f" fill-opacity="1"><g transform="translate(153.89866, 275.325732)"><g/></g></g><g fill="#41729f" fill-opacity="1"><g transform="translate(171.159322, 275.325732)"><g><path d="M 22.875 -24.390625 L 22.875 0 L 19.578125 0 L 19.578125 -11.09375 L 6.421875 -11.09375 L 6.421875 0 L 3.109375 0 L 3.109375 -24.390625 L 6.421875 -24.390625 L 6.421875 -13.515625 L 19.578125 -13.515625 L 19.578125 -24.390625 Z M 22.875 -24.390625 "/></g></g></g><g fill="#41729f" fill-opacity="1"><g transform="translate(205.693374, 275.325732)"><g><path d="M 25.65625 -12.1875 C 25.65625 -10.363281 25.363281 -8.6875 24.78125 -7.15625 C 24.207031 -5.632812 23.390625 -4.320312 22.328125 -3.21875 C 21.273438 -2.113281 20.007812 -1.257812 18.53125 -0.65625 C 17.050781 -0.0507812 15.414062 0.25 13.625 0.25 C 11.820312 0.25 10.179688 -0.0507812 8.703125 -0.65625 C 7.234375 -1.257812 5.972656 -2.113281 4.921875 -3.21875 C 3.867188 -4.320312 3.050781 -5.632812 2.46875 -7.15625 C 1.882812 -8.6875 1.59375 -10.363281 1.59375 -12.1875 C 1.59375 -14.007812 1.882812 -15.6875 2.46875 -17.21875 C 3.050781 -18.75 3.867188 -20.066406 4.921875 -21.171875 C 5.972656 -22.273438 7.234375 -23.132812 8.703125 -23.75 C 10.179688 -24.363281 11.820312 -24.671875 13.625 -24.671875 C 15.414062 -24.671875 17.050781 -24.363281 18.53125 -23.75 C 20.007812 -23.132812 21.273438 -22.273438 22.328125 -21.171875 C 23.390625 -20.066406 24.207031 -18.75 24.78125 -17.21875 C 25.363281 -15.6875 25.65625 -14.007812 25.65625 -12.1875 Z M 22.265625 -12.1875 C 22.265625 -13.6875 22.0625 -15.03125 21.65625 -16.21875 C 21.25 -17.414062 20.671875 -18.425781 19.921875 -19.25 C 19.171875 -20.070312 18.257812 -20.703125 17.1875 -21.140625 C 16.125 -21.585938 14.9375 -21.8125 13.625 -21.8125 C 12.3125 -21.8125 11.117188 -21.585938 10.046875 -21.140625 C 8.984375 -20.703125 8.078125 -20.070312 7.328125 -19.25 C 6.578125 -18.425781 5.992188 -17.414062 5.578125 -16.21875 C 5.171875 -15.03125 4.96875 -13.6875 4.96875 -12.1875 C 4.96875 -10.6875 5.171875 -9.34375 5.578125 -8.15625 C 5.992188 -6.976562 6.578125 -5.976562 7.328125 -5.15625 C 8.078125 -4.332031 8.984375 -3.703125 10.046875 -3.265625 C 11.117188 -2.828125 12.3125 -2.609375 13.625 -2.609375 C 14.9375 -2.609375 16.125 -2.828125 17.1875 -3.265625 C 18.257812 -3.703125 19.171875 -4.332031 19.921875 -5.15625 C 20.671875 -5.976562 21.25 -6.976562 21.65625 -8.15625 C 22.0625 -9.34375 22.265625 -10.6875 22.265625 -12.1875 Z M 22.265625 -12.1875 "/></g></g></g><g fill="#41729f" fill-opacity="1"><g transform="translate(241.486758, 275.325732)"><g><path d="M 10.3125 -11.75 C 11.257812 -11.75 12.09375 -11.875 12.8125 -12.125 C 13.53125 -12.375 14.132812 -12.722656 14.625 -13.171875 C 15.125 -13.617188 15.5 -14.15625 15.75 -14.78125 C 16 -15.40625 16.125 -16.09375 16.125 -16.84375 C 16.125 -18.394531 15.644531 -19.609375 14.6875 -20.484375 C 13.726562 -21.359375 12.269531 -21.796875 10.3125 -21.796875 L 6.40625 -21.796875 L 6.40625 -11.75 Z M 10.3125 -24.390625 C 11.851562 -24.390625 13.191406 -24.210938 14.328125 -23.859375 C 15.472656 -23.503906 16.421875 -22.992188 17.171875 -22.328125 C 17.921875 -21.671875 18.476562 -20.878906 18.84375 -19.953125 C 19.21875 -19.023438 19.40625 -17.988281 19.40625 -16.84375 C 19.40625 -15.707031 19.207031 -14.664062 18.8125 -13.71875 C 18.414062 -12.78125 17.832031 -11.96875 17.0625 -11.28125 C 16.300781 -10.601562 15.351562 -10.070312 14.21875 -9.6875 C 13.09375 -9.3125 11.789062 -9.125 10.3125 -9.125 L 6.40625 -9.125 L 6.40625 0 L 3.109375 0 L 3.109375 -24.390625 Z M 10.3125 -24.390625 "/></g></g></g><g fill="#41729f" fill-opacity="1"><g transform="translate(270.472896, 275.325732)"><g><path d="M 18.15625 -2.6875 L 18.140625 0 L 3.109375 0 L 3.109375 -24.390625 L 18.140625 -24.390625 L 18.140625 -21.703125 L 6.421875 -21.703125 L 6.421875 -13.609375 L 15.921875 -13.609375 L 15.921875 -11.015625 L 6.421875 -11.015625 L 6.421875 -2.6875 Z M 18.15625 -2.6875 "/></g></g></g><g fill="#5885af" fill-opacity="1"><g transform="translate(74.896867, 302.579247)"><g><path d="M 7.75 -13.75 C 8.757812 -13.75 9.753906 -13.539062 10.734375 -13.125 C 11.710938 -12.707031 12.546875 -12.148438 13.234375 -11.453125 L 11.234375 -9.078125 C 10.796875 -9.617188 10.265625 -10.046875 9.640625 -10.359375 C 9.023438 -10.679688 8.414062 -10.84375 7.8125 -10.84375 C 6.726562 -10.84375 5.820312 -10.460938 5.09375 -9.703125 C 4.375 -8.941406 4.015625 -8.003906 4.015625 -6.890625 C 4.015625 -5.742188 4.375 -4.785156 5.09375 -4.015625 C 5.820312 -3.253906 6.726562 -2.875 7.8125 -2.875 C 8.375 -2.875 8.960938 -3.015625 9.578125 -3.296875 C 10.203125 -3.585938 10.753906 -3.984375 11.234375 -4.484375 L 13.265625 -2.34375 C 12.523438 -1.582031 11.648438 -0.972656 10.640625 -0.515625 C 9.628906 -0.0664062 8.625 0.15625 7.625 0.15625 C 5.582031 0.15625 3.878906 -0.507812 2.515625 -1.84375 C 1.148438 -3.1875 0.46875 -4.859375 0.46875 -6.859375 C 0.46875 -8.816406 1.160156 -10.453125 2.546875 -11.765625 C 3.941406 -13.085938 5.675781 -13.75 7.75 -13.75 Z M 7.75 -13.75 "/></g></g></g><g fill="#5885af" fill-opacity="1"><g transform="translate(94.749272, 302.579247)"><g><path d="M 10.421875 -2.515625 L 4.453125 -2.515625 L 3.46875 0 L -0.09375 0 L 5.78125 -13.625 L 9.34375 -13.625 L 15.09375 0 L 11.390625 0 Z M 9.40625 -5.140625 L 7.453125 -10.1875 L 5.46875 -5.140625 Z M 9.40625 -5.140625 "/></g></g></g><g fill="#5885af" fill-opacity="1"><g transform="translate(116.119538, 302.579247)"><g><path d="M 9.578125 0 L 7.546875 -3.828125 L 4.828125 -3.828125 L 4.828125 0 L 1.359375 0 L 1.359375 -13.625 L 7.453125 -13.625 C 9.253906 -13.625 10.648438 -13.210938 11.640625 -12.390625 C 12.628906 -11.566406 13.125 -10.394531 13.125 -8.875 C 13.125 -6.769531 12.300781 -5.3125 10.65625 -4.5 L 13.515625 0 Z M 4.828125 -6.5625 L 7.453125 -6.5625 C 8.203125 -6.5625 8.785156 -6.75 9.203125 -7.125 C 9.617188 -7.5 9.828125 -8.046875 9.828125 -8.765625 C 9.828125 -9.460938 9.617188 -9.992188 9.203125 -10.359375 C 8.785156 -10.722656 8.203125 -10.90625 7.453125 -10.90625 L 4.828125 -10.90625 Z M 4.828125 -6.5625 "/></g></g></g><g fill="#5885af" fill-opacity="1"><g transform="translate(136.594664, 302.579247)"><g><path d="M 12.03125 -10.90625 L 4.828125 -10.90625 L 4.828125 -8.203125 L 11.328125 -8.203125 L 11.328125 -5.46875 L 4.828125 -5.46875 L 4.828125 -2.71875 L 12.25 -2.71875 L 12.25 0 L 1.359375 0 L 1.359375 -13.625 L 12.03125 -13.625 Z M 12.03125 -10.90625 "/></g></g></g><g fill="#5885af" fill-opacity="1"><g transform="translate(156.096796, 302.579247)"><g><path d="M 10.421875 -6.9375 L 13.40625 -6.9375 L 13.40625 -1.609375 C 12.664062 -1.097656 11.773438 -0.675781 10.734375 -0.34375 C 9.691406 -0.0078125 8.695312 0.15625 7.75 0.15625 C 5.675781 0.15625 3.941406 -0.503906 2.546875 -1.828125 C 1.160156 -3.160156 0.46875 -4.820312 0.46875 -6.8125 C 0.46875 -8.78125 1.179688 -10.425781 2.609375 -11.75 C 4.035156 -13.082031 5.828125 -13.75 7.984375 -13.75 C 8.992188 -13.75 10 -13.566406 11 -13.203125 C 12 -12.835938 12.847656 -12.34375 13.546875 -11.71875 L 11.609375 -9.359375 C 11.109375 -9.816406 10.535156 -10.175781 9.890625 -10.4375 C 9.242188 -10.707031 8.601562 -10.84375 7.96875 -10.84375 C 6.84375 -10.84375 5.898438 -10.457031 5.140625 -9.6875 C 4.390625 -8.914062 4.015625 -7.957031 4.015625 -6.8125 C 4.015625 -5.65625 4.394531 -4.6875 5.15625 -3.90625 C 5.925781 -3.132812 6.875 -2.75 8 -2.75 C 8.726562 -2.75 9.535156 -2.96875 10.421875 -3.40625 Z M 10.421875 -6.9375 "/></g></g></g><g fill="#5885af" fill-opacity="1"><g transform="translate(176.941651, 302.579247)"><g><path d="M 4.828125 0 L 1.359375 0 L 1.359375 -13.625 L 4.828125 -13.625 Z M 4.828125 0 "/></g></g></g><g fill="#5885af" fill-opacity="1"><g transform="translate(189.516107, 302.579247)"><g><path d="M 8.859375 0 L 5.28125 0 L -0.015625 -13.625 L 3.671875 -13.625 L 7.171875 -3.609375 L 10.65625 -13.625 L 14.21875 -13.625 Z M 8.859375 0 "/></g></g></g><g fill="#5885af" fill-opacity="1"><g transform="translate(210.088516, 302.579247)"><g><path d="M 12.03125 -10.90625 L 4.828125 -10.90625 L 4.828125 -8.203125 L 11.328125 -8.203125 L 11.328125 -5.46875 L 4.828125 -5.46875 L 4.828125 -2.71875 L 12.25 -2.71875 L 12.25 0 L 1.359375 0 L 1.359375 -13.625 L 12.03125 -13.625 Z M 12.03125 -10.90625 "/></g></g></g><g fill="#5885af" fill-opacity="1"><g transform="translate(229.590647, 302.579247)"><g><path d="M 9.578125 0 L 7.546875 -3.828125 L 4.828125 -3.828125 L 4.828125 0 L 1.359375 0 L 1.359375 -13.625 L 7.453125 -13.625 C 9.253906 -13.625 10.648438 -13.210938 11.640625 -12.390625 C 12.628906 -11.566406 13.125 -10.394531 13.125 -8.875 C 13.125 -6.769531 12.300781 -5.3125 10.65625 -4.5 L 13.515625 0 Z M 4.828125 -6.5625 L 7.453125 -6.5625 C 8.203125 -6.5625 8.785156 -6.75 9.203125 -7.125 C 9.617188 -7.5 9.828125 -8.046875 9.828125 -8.765625 C 9.828125 -9.460938 9.617188 -9.992188 9.203125 -10.359375 C 8.785156 -10.722656 8.203125 -10.90625 7.453125 -10.90625 L 4.828125 -10.90625 Z M 4.828125 -6.5625 "/></g></g></g><g fill="#5885af" fill-opacity="1"><g transform="translate(250.065768, 302.579247)"><g><path d="M 6.59375 -13.78125 C 8.632812 -13.78125 10.425781 -13.273438 11.96875 -12.265625 L 10.671875 -9.5625 C 9.953125 -9.976562 9.179688 -10.316406 8.359375 -10.578125 C 7.546875 -10.847656 6.863281 -10.984375 6.3125 -10.984375 C 5.3125 -10.984375 4.8125 -10.648438 4.8125 -9.984375 C 4.8125 -9.554688 5.054688 -9.210938 5.546875 -8.953125 C 6.035156 -8.691406 6.632812 -8.46875 7.34375 -8.28125 C 8.050781 -8.09375 8.757812 -7.863281 9.46875 -7.59375 C 10.175781 -7.332031 10.773438 -6.898438 11.265625 -6.296875 C 11.765625 -5.703125 12.015625 -4.953125 12.015625 -4.046875 C 12.015625 -2.734375 11.5 -1.710938 10.46875 -0.984375 C 9.445312 -0.253906 8.144531 0.109375 6.5625 0.109375 C 5.4375 0.109375 4.320312 -0.0820312 3.21875 -0.46875 C 2.113281 -0.851562 1.148438 -1.382812 0.328125 -2.0625 L 1.671875 -4.734375 C 2.359375 -4.128906 3.171875 -3.632812 4.109375 -3.25 C 5.046875 -2.875 5.875 -2.6875 6.59375 -2.6875 C 7.15625 -2.6875 7.59375 -2.785156 7.90625 -2.984375 C 8.21875 -3.191406 8.375 -3.488281 8.375 -3.875 C 8.375 -4.25 8.191406 -4.5625 7.828125 -4.8125 C 7.472656 -5.070312 7.03125 -5.257812 6.5 -5.375 C 5.96875 -5.5 5.390625 -5.664062 4.765625 -5.875 C 4.140625 -6.082031 3.5625 -6.3125 3.03125 -6.5625 C 2.5 -6.8125 2.054688 -7.203125 1.703125 -7.734375 C 1.347656 -8.273438 1.171875 -8.921875 1.171875 -9.671875 C 1.171875 -10.921875 1.664062 -11.914062 2.65625 -12.65625 C 3.644531 -13.40625 4.957031 -13.78125 6.59375 -13.78125 Z M 6.59375 -13.78125 "/></g></g></g></svg>