<svg xmlns="http://www.w3.org/2000/svg" xmlns:xlink="http://www.w3.org/1999/xlink" width="450" zoomAndPan="magnify" viewBox="0 0 337.5 311.25" height="415" preserveAspectRatio="xMidYMid meet" version="1.0"><defs><clipPath id="940d3af54f"><path d="M 32 19 L 306.246094 19 L 306.246094 292.976562 L 32 292.976562 Z M 32 19 " clip-rule="nonzero"/></clipPath></defs><g clip-path="url(#940d3af54f)"><path fill="#274472" d="M 303.847656 183.765625 L 179.175781 81.070312 C 187.617188 73.636719 195.613281 65.757812 203.167969 57.429688 C 204.203125 56.070312 205.070312 54.617188 205.773438 53.0625 C 206.480469 51.507812 207 49.894531 207.339844 48.222656 C 207.675781 46.546875 207.824219 44.859375 207.78125 43.152344 C 207.734375 41.449219 207.5 39.769531 207.074219 38.117188 C 206.601562 36.257812 205.929688 34.472656 205.054688 32.765625 C 204.175781 31.058594 203.121094 29.472656 201.882812 28.003906 C 200.648438 26.535156 199.265625 25.226562 197.730469 24.070312 C 196.199219 22.917969 194.554688 21.949219 192.800781 21.167969 C 191.839844 20.761719 190.855469 20.425781 189.847656 20.15625 C 188.839844 19.886719 187.816406 19.6875 186.78125 19.5625 C 185.746094 19.4375 184.707031 19.382812 183.664062 19.402344 C 182.621094 19.421875 181.582031 19.515625 180.550781 19.679688 C 179.523438 19.84375 178.507812 20.078125 177.511719 20.382812 C 176.511719 20.6875 175.539062 21.0625 174.59375 21.503906 C 173.648438 21.945312 172.738281 22.453125 171.863281 23.019531 C 170.992188 23.589844 170.160156 24.214844 169.371094 24.902344 C 168.585938 24.21875 167.753906 23.59375 166.878906 23.023438 C 166 22.457031 165.089844 21.953125 164.144531 21.511719 C 163.199219 21.070312 162.230469 20.699219 161.230469 20.394531 C 160.234375 20.085938 159.21875 19.851562 158.191406 19.6875 C 157.160156 19.523438 156.125 19.433594 155.082031 19.414062 C 154.039062 19.394531 152.996094 19.445312 151.960938 19.570312 C 150.925781 19.695312 149.90625 19.894531 148.894531 20.160156 C 147.886719 20.429688 146.902344 20.765625 145.941406 21.167969 C 144.1875 21.949219 142.546875 22.917969 141.011719 24.070312 C 139.480469 25.226562 138.097656 26.535156 136.859375 28.003906 C 135.625 29.472656 134.566406 31.058594 133.691406 32.765625 C 132.816406 34.472656 132.140625 36.257812 131.667969 38.117188 C 131.246094 39.769531 131.007812 41.449219 130.964844 43.152344 C 130.921875 44.859375 131.066406 46.546875 131.40625 48.222656 C 131.742188 49.894531 132.265625 51.507812 132.96875 53.0625 C 133.671875 54.617188 134.542969 56.070312 135.578125 57.429688 C 143.132812 65.757812 151.128906 73.636719 159.566406 81.070312 L 34.898438 183.765625 C 34.570312 184.03125 34.273438 184.328125 34.007812 184.65625 C 33.738281 184.984375 33.503906 185.332031 33.304688 185.707031 C 33.105469 186.078125 32.945312 186.464844 32.820312 186.871094 C 32.699219 187.273438 32.617188 187.6875 32.574219 188.109375 C 32.535156 188.527344 32.535156 188.949219 32.574219 189.371094 C 32.617188 189.789062 32.699219 190.203125 32.820312 190.605469 C 32.945312 191.011719 33.105469 191.398438 33.304688 191.773438 C 33.503906 192.144531 33.734375 192.496094 34.003906 192.820312 C 34.273438 193.148438 34.570312 193.445312 34.894531 193.714844 C 35.222656 193.980469 35.570312 194.214844 35.945312 194.414062 C 36.316406 194.613281 36.707031 194.777344 37.109375 194.898438 C 37.515625 195.023438 37.925781 195.105469 38.347656 195.144531 C 38.765625 195.1875 39.1875 195.1875 39.609375 195.144531 C 40.027344 195.105469 40.441406 195.023438 40.847656 194.902344 C 41.25 194.777344 41.640625 194.617188 42.011719 194.417969 C 42.382812 194.21875 42.734375 193.988281 43.0625 193.71875 L 66.765625 174.183594 L 66.765625 286.507812 C 66.761719 286.929688 66.800781 287.351562 66.878906 287.769531 C 66.960938 288.183594 67.078125 288.589844 67.238281 288.980469 C 67.398438 289.371094 67.597656 289.746094 67.828125 290.097656 C 68.0625 290.453125 68.328125 290.78125 68.628906 291.082031 C 68.925781 291.382812 69.25 291.648438 69.601562 291.886719 C 69.953125 292.121094 70.328125 292.320312 70.71875 292.484375 C 71.109375 292.648438 71.511719 292.769531 71.925781 292.855469 C 72.34375 292.9375 72.761719 292.976562 73.1875 292.976562 L 135.515625 292.976562 C 135.933594 292.976562 136.351562 292.9375 136.761719 292.851562 C 137.175781 292.769531 137.574219 292.648438 137.964844 292.488281 C 138.351562 292.324219 138.722656 292.128906 139.070312 291.894531 C 139.421875 291.660156 139.746094 291.394531 140.042969 291.097656 C 140.339844 290.800781 140.605469 290.476562 140.839844 290.128906 C 141.074219 289.777344 141.269531 289.410156 141.429688 289.019531 C 141.59375 288.632812 141.714844 288.230469 141.796875 287.820312 C 141.878906 287.40625 141.921875 286.992188 141.921875 286.570312 L 141.921875 232.191406 C 141.921875 231.292969 141.964844 230.398438 142.054688 229.503906 C 142.144531 228.609375 142.273438 227.71875 142.449219 226.839844 C 142.625 225.957031 142.84375 225.085938 143.105469 224.226562 C 143.367188 223.363281 143.667969 222.519531 144.011719 221.6875 C 144.355469 220.859375 144.738281 220.046875 145.164062 219.253906 C 145.585938 218.460938 146.050781 217.691406 146.546875 216.941406 C 147.046875 216.195312 147.582031 215.472656 148.152344 214.78125 C 148.722656 214.085938 149.328125 213.417969 149.960938 212.785156 C 150.597656 212.148438 151.261719 211.542969 151.957031 210.972656 C 152.652344 210.402344 153.375 209.871094 154.121094 209.371094 C 154.871094 208.871094 155.640625 208.410156 156.433594 207.984375 C 157.226562 207.5625 158.035156 207.175781 158.867188 206.832031 C 159.699219 206.488281 160.542969 206.1875 161.402344 205.925781 C 162.265625 205.664062 163.136719 205.445312 164.015625 205.269531 C 164.898438 205.09375 165.785156 204.964844 166.679688 204.875 C 167.578125 204.789062 168.472656 204.742188 169.371094 204.742188 C 170.269531 204.742188 171.167969 204.789062 172.0625 204.875 C 172.957031 204.964844 173.84375 205.09375 174.726562 205.269531 C 175.609375 205.445312 176.480469 205.664062 177.339844 205.925781 C 178.199219 206.1875 179.046875 206.488281 179.875 206.832031 C 180.707031 207.175781 181.519531 207.5625 182.3125 207.984375 C 183.105469 208.410156 183.875 208.871094 184.621094 209.371094 C 185.371094 209.871094 186.089844 210.402344 186.785156 210.972656 C 187.480469 211.542969 188.144531 212.148438 188.78125 212.785156 C 189.417969 213.417969 190.019531 214.085938 190.589844 214.78125 C 191.160156 215.472656 191.695312 216.195312 192.195312 216.941406 C 192.695312 217.691406 193.15625 218.460938 193.582031 219.253906 C 194.003906 220.046875 194.386719 220.859375 194.730469 221.6875 C 195.078125 222.519531 195.378906 223.363281 195.640625 224.226562 C 195.902344 225.085938 196.117188 225.957031 196.292969 226.839844 C 196.46875 227.71875 196.601562 228.609375 196.691406 229.503906 C 196.777344 230.398438 196.820312 231.292969 196.820312 232.191406 L 196.820312 286.507812 C 196.824219 286.929688 196.863281 287.34375 196.945312 287.757812 C 197.03125 288.167969 197.152344 288.570312 197.3125 288.957031 C 197.472656 289.347656 197.671875 289.714844 197.90625 290.066406 C 198.140625 290.414062 198.40625 290.738281 198.703125 291.035156 C 199 291.332031 199.324219 291.597656 199.671875 291.832031 C 200.023438 292.066406 200.390625 292.265625 200.78125 292.425781 C 201.167969 292.585938 201.570312 292.707031 201.980469 292.792969 C 202.394531 292.875 202.808594 292.914062 203.230469 292.917969 L 265.558594 292.917969 C 265.980469 292.917969 266.394531 292.875 266.808594 292.792969 C 267.222656 292.710938 267.625 292.589844 268.011719 292.429688 C 268.402344 292.269531 268.769531 292.070312 269.121094 291.835938 C 269.472656 291.601562 269.796875 291.335938 270.09375 291.039062 C 270.390625 290.742188 270.65625 290.417969 270.890625 290.070312 C 271.125 289.71875 271.324219 289.351562 271.488281 288.960938 C 271.648438 288.574219 271.769531 288.171875 271.851562 287.757812 C 271.9375 287.347656 271.976562 286.929688 271.980469 286.507812 L 271.980469 174.132812 L 295.683594 193.667969 C 296.011719 193.9375 296.359375 194.167969 296.734375 194.367188 C 297.105469 194.566406 297.492188 194.726562 297.898438 194.851562 C 298.300781 194.972656 298.714844 195.054688 299.136719 195.09375 C 299.554688 195.136719 299.976562 195.136719 300.398438 195.09375 C 300.816406 195.050781 301.230469 194.96875 301.632812 194.847656 C 302.039062 194.722656 302.425781 194.5625 302.796875 194.363281 C 303.171875 194.164062 303.519531 193.929688 303.847656 193.660156 C 304.171875 193.394531 304.46875 193.097656 304.738281 192.769531 C 305.003906 192.441406 305.238281 192.09375 305.4375 191.71875 C 305.636719 191.347656 305.796875 190.960938 305.921875 190.554688 C 306.042969 190.152344 306.125 189.738281 306.164062 189.320312 C 306.207031 188.898438 306.207031 188.476562 306.164062 188.058594 C 306.125 187.636719 306.042969 187.226562 305.921875 186.820312 C 305.796875 186.417969 305.636719 186.027344 305.4375 185.65625 C 305.238281 185.28125 305.003906 184.933594 304.738281 184.605469 C 304.46875 184.28125 304.171875 183.984375 303.847656 183.714844 Z M 145.730469 49.589844 C 144.828125 48.386719 144.238281 47.046875 143.953125 45.570312 C 143.671875 44.09375 143.722656 42.628906 144.113281 41.175781 C 144.355469 40.257812 144.699219 39.375 145.140625 38.53125 C 145.585938 37.6875 146.117188 36.902344 146.738281 36.179688 C 147.359375 35.457031 148.050781 34.8125 148.816406 34.246094 C 149.585938 33.679688 150.40625 33.207031 151.28125 32.828125 C 157.789062 29.839844 163.164062 37.207031 164.40625 37.804688 C 164.710938 38.167969 165.046875 38.492188 165.421875 38.78125 C 165.792969 39.066406 166.191406 39.3125 166.621094 39.511719 C 167.046875 39.710938 167.492188 39.863281 167.949219 39.964844 C 168.410156 40.066406 168.875 40.117188 169.347656 40.117188 C 169.820312 40.117188 170.285156 40.066406 170.746094 39.964844 C 171.203125 39.863281 171.648438 39.710938 172.074219 39.511719 C 172.5 39.3125 172.902344 39.066406 173.273438 38.78125 C 173.648438 38.492188 173.984375 38.167969 174.289062 37.804688 C 174.363281 37.730469 181.042969 29.902344 187.441406 32.828125 C 188.3125 33.207031 189.132812 33.679688 189.902344 34.246094 C 190.667969 34.8125 191.363281 35.457031 191.984375 36.179688 C 192.601562 36.902344 193.136719 37.6875 193.578125 38.53125 C 194.019531 39.375 194.363281 40.257812 194.605469 41.175781 C 194.996094 42.628906 195.046875 44.089844 194.765625 45.566406 C 194.484375 47.042969 193.898438 48.382812 193 49.589844 C 185.515625 57.679688 177.640625 65.371094 169.371094 72.660156 C 161.097656 65.375 153.214844 57.683594 145.730469 49.589844 Z M 259.136719 280.085938 L 209.652344 280.085938 L 209.652344 232.191406 C 209.648438 230.875 209.585938 229.558594 209.453125 228.246094 C 209.324219 226.933594 209.132812 225.632812 208.875 224.339844 C 208.617188 223.042969 208.296875 221.765625 207.910156 220.503906 C 207.527344 219.242188 207.085938 218.003906 206.578125 216.785156 C 206.074219 215.566406 205.511719 214.375 204.886719 213.214844 C 204.265625 212.050781 203.589844 210.921875 202.855469 209.824219 C 202.121094 208.730469 201.335938 207.671875 200.5 206.652344 C 199.664062 205.632812 198.777344 204.65625 197.847656 203.726562 C 196.914062 202.792969 195.9375 201.90625 194.917969 201.070312 C 193.898438 200.234375 192.839844 199.449219 191.742188 198.71875 C 190.648438 197.984375 189.515625 197.308594 188.355469 196.6875 C 187.191406 196.066406 186 195.503906 184.78125 195 C 183.5625 194.492188 182.324219 194.050781 181.0625 193.667969 C 179.800781 193.285156 178.519531 192.964844 177.226562 192.707031 C 175.933594 192.449219 174.632812 192.257812 173.320312 192.128906 C 172.007812 192 170.691406 191.933594 169.371094 191.933594 C 168.054688 191.933594 166.738281 192 165.425781 192.128906 C 164.113281 192.257812 162.808594 192.449219 161.515625 192.707031 C 160.222656 192.964844 158.945312 193.285156 157.683594 193.667969 C 156.421875 194.050781 155.179688 194.492188 153.960938 195 C 152.746094 195.503906 151.554688 196.066406 150.390625 196.6875 C 149.226562 197.308594 148.097656 197.984375 147 198.71875 C 145.902344 199.449219 144.847656 200.234375 143.828125 201.070312 C 142.808594 201.90625 141.832031 202.792969 140.898438 203.726562 C 139.964844 204.65625 139.082031 205.632812 138.242188 206.652344 C 137.40625 207.671875 136.621094 208.730469 135.886719 209.824219 C 135.15625 210.921875 134.476562 212.050781 133.855469 213.214844 C 133.234375 214.375 132.671875 215.566406 132.164062 216.785156 C 131.660156 218.003906 131.214844 219.242188 130.832031 220.503906 C 130.449219 221.765625 130.128906 223.042969 129.871094 224.339844 C 129.613281 225.632812 129.417969 226.933594 129.289062 228.246094 C 129.160156 229.558594 129.09375 230.875 129.09375 232.191406 L 129.09375 280.085938 L 79.59375 280.085938 L 79.59375 163.570312 L 169.371094 89.605469 L 259.148438 163.570312 Z M 259.136719 280.085938 " fill-opacity="1" fill-rule="nonzero"/></g></svg>