<svg xmlns="http://www.w3.org/2000/svg" xmlns:xlink="http://www.w3.org/1999/xlink" width="450" zoomAndPan="magnify" viewBox="0 0 337.5 311.25" height="415" preserveAspectRatio="xMidYMid meet" version="1.0"><defs><g/></defs><g fill="#41729f" fill-opacity="1"><g transform="translate(47.369393, 156.235538)"><g><path d="M 22.875 -24.390625 L 22.875 0 L 21.234375 0 C 20.972656 0 20.753906 -0.0390625 20.578125 -0.125 C 20.398438 -0.21875 20.222656 -0.375 20.046875 -0.59375 L 5.9375 -18.984375 C 5.957031 -18.703125 5.972656 -18.421875 5.984375 -18.140625 C 6.003906 -17.867188 6.015625 -17.613281 6.015625 -17.375 L 6.015625 0 L 3.109375 0 L 3.109375 -24.390625 L 4.8125 -24.390625 C 4.957031 -24.390625 5.082031 -24.378906 5.1875 -24.359375 C 5.289062 -24.347656 5.378906 -24.320312 5.453125 -24.28125 C 5.535156 -24.238281 5.617188 -24.179688 5.703125 -24.109375 C 5.785156 -24.035156 5.867188 -23.941406 5.953125 -23.828125 L 20.078125 -5.46875 C 20.046875 -5.757812 20.019531 -6.039062 20 -6.3125 C 19.988281 -6.59375 19.984375 -6.859375 19.984375 -7.109375 L 19.984375 -24.390625 Z M 22.875 -24.390625 "/></g></g></g><g fill="#41729f" fill-opacity="1"><g transform="translate(81.903446, 156.235538)"><g><path d="M 18.15625 -2.6875 L 18.140625 0 L 3.109375 0 L 3.109375 -24.390625 L 18.140625 -24.390625 L 18.140625 -21.703125 L 6.421875 -21.703125 L 6.421875 -13.609375 L 15.921875 -13.609375 L 15.921875 -11.015625 L 6.421875 -11.015625 L 6.421875 -2.6875 Z M 18.15625 -2.6875 "/></g></g></g><g fill="#41729f" fill-opacity="1"><g transform="translate(110.106753, 156.235538)"><g><path d="M 34.734375 -24.390625 L 27.125 0 L 24.15625 0 L 17.984375 -18.609375 C 17.921875 -18.785156 17.863281 -18.972656 17.8125 -19.171875 C 17.757812 -19.378906 17.707031 -19.597656 17.65625 -19.828125 C 17.59375 -19.597656 17.53125 -19.378906 17.46875 -19.171875 C 17.414062 -18.972656 17.363281 -18.785156 17.3125 -18.609375 L 11.09375 0 L 8.140625 0 L 0.53125 -24.390625 L 3.265625 -24.390625 C 3.566406 -24.390625 3.816406 -24.316406 4.015625 -24.171875 C 4.210938 -24.023438 4.335938 -23.835938 4.390625 -23.609375 L 9.4375 -6.65625 C 9.507812 -6.351562 9.582031 -6.023438 9.65625 -5.671875 C 9.726562 -5.316406 9.800781 -4.941406 9.875 -4.546875 C 9.957031 -4.941406 10.039062 -5.316406 10.125 -5.671875 C 10.207031 -6.035156 10.300781 -6.363281 10.40625 -6.65625 L 16.140625 -23.609375 C 16.203125 -23.804688 16.332031 -23.984375 16.53125 -24.140625 C 16.738281 -24.304688 16.984375 -24.390625 17.265625 -24.390625 L 18.21875 -24.390625 C 18.507812 -24.390625 18.742188 -24.316406 18.921875 -24.171875 C 19.109375 -24.023438 19.25 -23.835938 19.34375 -23.609375 L 25.0625 -6.65625 C 25.164062 -6.363281 25.257812 -6.046875 25.34375 -5.703125 C 25.425781 -5.359375 25.507812 -5 25.59375 -4.625 C 25.644531 -5 25.703125 -5.359375 25.765625 -5.703125 C 25.835938 -6.046875 25.914062 -6.363281 26 -6.65625 L 31.046875 -23.609375 C 31.109375 -23.816406 31.238281 -24 31.4375 -24.15625 C 31.632812 -24.3125 31.875 -24.390625 32.15625 -24.390625 Z M 34.734375 -24.390625 "/></g></g></g><g fill="#41729f" fill-opacity="1"><g transform="translate(153.89866, 156.235538)"><g/></g></g><g fill="#41729f" fill-opacity="1"><g transform="translate(171.159322, 156.235538)"><g><path d="M 22.875 -24.390625 L 22.875 0 L 19.578125 0 L 19.578125 -11.09375 L 6.421875 -11.09375 L 6.421875 0 L 3.109375 0 L 3.109375 -24.390625 L 6.421875 -24.390625 L 6.421875 -13.515625 L 19.578125 -13.515625 L 19.578125 -24.390625 Z M 22.875 -24.390625 "/></g></g></g><g fill="#41729f" fill-opacity="1"><g transform="translate(205.693374, 156.235538)"><g><path d="M 25.65625 -12.1875 C 25.65625 -10.363281 25.363281 -8.6875 24.78125 -7.15625 C 24.207031 -5.632812 23.390625 -4.320312 22.328125 -3.21875 C 21.273438 -2.113281 20.007812 -1.257812 18.53125 -0.65625 C 17.050781 -0.0507812 15.414062 0.25 13.625 0.25 C 11.820312 0.25 10.179688 -0.0507812 8.703125 -0.65625 C 7.234375 -1.257812 5.972656 -2.113281 4.921875 -3.21875 C 3.867188 -4.320312 3.050781 -5.632812 2.46875 -7.15625 C 1.882812 -8.6875 1.59375 -10.363281 1.59375 -12.1875 C 1.59375 -14.007812 1.882812 -15.6875 2.46875 -17.21875 C 3.050781 -18.75 3.867188 -20.066406 4.921875 -21.171875 C 5.972656 -22.273438 7.234375 -23.132812 8.703125 -23.75 C 10.179688 -24.363281 11.820312 -24.671875 13.625 -24.671875 C 15.414062 -24.671875 17.050781 -24.363281 18.53125 -23.75 C 20.007812 -23.132812 21.273438 -22.273438 22.328125 -21.171875 C 23.390625 -20.066406 24.207031 -18.75 24.78125 -17.21875 C 25.363281 -15.6875 25.65625 -14.007812 25.65625 -12.1875 Z M 22.265625 -12.1875 C 22.265625 -13.6875 22.0625 -15.03125 21.65625 -16.21875 C 21.25 -17.414062 20.671875 -18.425781 19.921875 -19.25 C 19.171875 -20.070312 18.257812 -20.703125 17.1875 -21.140625 C 16.125 -21.585938 14.9375 -21.8125 13.625 -21.8125 C 12.3125 -21.8125 11.117188 -21.585938 10.046875 -21.140625 C 8.984375 -20.703125 8.078125 -20.070312 7.328125 -19.25 C 6.578125 -18.425781 5.992188 -17.414062 5.578125 -16.21875 C 5.171875 -15.03125 4.96875 -13.6875 4.96875 -12.1875 C 4.96875 -10.6875 5.171875 -9.34375 5.578125 -8.15625 C 5.992188 -6.976562 6.578125 -5.976562 7.328125 -5.15625 C 8.078125 -4.332031 8.984375 -3.703125 10.046875 -3.265625 C 11.117188 -2.828125 12.3125 -2.609375 13.625 -2.609375 C 14.9375 -2.609375 16.125 -2.828125 17.1875 -3.265625 C 18.257812 -3.703125 19.171875 -4.332031 19.921875 -5.15625 C 20.671875 -5.976562 21.25 -6.976562 21.65625 -8.15625 C 22.0625 -9.34375 22.265625 -10.6875 22.265625 -12.1875 Z M 22.265625 -12.1875 "/></g></g></g><g fill="#41729f" fill-opacity="1"><g transform="translate(241.486758, 156.235538)"><g><path d="M 10.3125 -11.75 C 11.257812 -11.75 12.09375 -11.875 12.8125 -12.125 C 13.53125 -12.375 14.132812 -12.722656 14.625 -13.171875 C 15.125 -13.617188 15.5 -14.15625 15.75 -14.78125 C 16 -15.40625 16.125 -16.09375 16.125 -16.84375 C 16.125 -18.394531 15.644531 -19.609375 14.6875 -20.484375 C 13.726562 -21.359375 12.269531 -21.796875 10.3125 -21.796875 L 6.40625 -21.796875 L 6.40625 -11.75 Z M 10.3125 -24.390625 C 11.851562 -24.390625 13.191406 -24.210938 14.328125 -23.859375 C 15.472656 -23.503906 16.421875 -22.992188 17.171875 -22.328125 C 17.921875 -21.671875 18.476562 -20.878906 18.84375 -19.953125 C 19.21875 -19.023438 19.40625 -17.988281 19.40625 -16.84375 C 19.40625 -15.707031 19.207031 -14.664062 18.8125 -13.71875 C 18.414062 -12.78125 17.832031 -11.96875 17.0625 -11.28125 C 16.300781 -10.601562 15.351562 -10.070312 14.21875 -9.6875 C 13.09375 -9.3125 11.789062 -9.125 10.3125 -9.125 L 6.40625 -9.125 L 6.40625 0 L 3.109375 0 L 3.109375 -24.390625 Z M 10.3125 -24.390625 "/></g></g></g><g fill="#41729f" fill-opacity="1"><g transform="translate(270.472896, 156.235538)"><g><path d="M 18.15625 -2.6875 L 18.140625 0 L 3.109375 0 L 3.109375 -24.390625 L 18.140625 -24.390625 L 18.140625 -21.703125 L 6.421875 -21.703125 L 6.421875 -13.609375 L 15.921875 -13.609375 L 15.921875 -11.015625 L 6.421875 -11.015625 L 6.421875 -2.6875 Z M 18.15625 -2.6875 "/></g></g></g><g fill="#5885af" fill-opacity="1"><g transform="translate(74.896867, 183.489041)"><g><path d="M 7.75 -13.75 C 8.757812 -13.75 9.753906 -13.539062 10.734375 -13.125 C 11.710938 -12.707031 12.546875 -12.148438 13.234375 -11.453125 L 11.234375 -9.078125 C 10.796875 -9.617188 10.265625 -10.046875 9.640625 -10.359375 C 9.023438 -10.679688 8.414062 -10.84375 7.8125 -10.84375 C 6.726562 -10.84375 5.820312 -10.460938 5.09375 -9.703125 C 4.375 -8.941406 4.015625 -8.003906 4.015625 -6.890625 C 4.015625 -5.742188 4.375 -4.785156 5.09375 -4.015625 C 5.820312 -3.253906 6.726562 -2.875 7.8125 -2.875 C 8.375 -2.875 8.960938 -3.015625 9.578125 -3.296875 C 10.203125 -3.585938 10.753906 -3.984375 11.234375 -4.484375 L 13.265625 -2.34375 C 12.523438 -1.582031 11.648438 -0.972656 10.640625 -0.515625 C 9.628906 -0.0664062 8.625 0.15625 7.625 0.15625 C 5.582031 0.15625 3.878906 -0.507812 2.515625 -1.84375 C 1.148438 -3.1875 0.46875 -4.859375 0.46875 -6.859375 C 0.46875 -8.816406 1.160156 -10.453125 2.546875 -11.765625 C 3.941406 -13.085938 5.675781 -13.75 7.75 -13.75 Z M 7.75 -13.75 "/></g></g></g><g fill="#5885af" fill-opacity="1"><g transform="translate(94.749272, 183.489041)"><g><path d="M 10.421875 -2.515625 L 4.453125 -2.515625 L 3.46875 0 L -0.09375 0 L 5.78125 -13.625 L 9.34375 -13.625 L 15.09375 0 L 11.390625 0 Z M 9.40625 -5.140625 L 7.453125 -10.1875 L 5.46875 -5.140625 Z M 9.40625 -5.140625 "/></g></g></g><g fill="#5885af" fill-opacity="1"><g transform="translate(116.119538, 183.489041)"><g><path d="M 9.578125 0 L 7.546875 -3.828125 L 4.828125 -3.828125 L 4.828125 0 L 1.359375 0 L 1.359375 -13.625 L 7.453125 -13.625 C 9.253906 -13.625 10.648438 -13.210938 11.640625 -12.390625 C 12.628906 -11.566406 13.125 -10.394531 13.125 -8.875 C 13.125 -6.769531 12.300781 -5.3125 10.65625 -4.5 L 13.515625 0 Z M 4.828125 -6.5625 L 7.453125 -6.5625 C 8.203125 -6.5625 8.785156 -6.75 9.203125 -7.125 C 9.617188 -7.5 9.828125 -8.046875 9.828125 -8.765625 C 9.828125 -9.460938 9.617188 -9.992188 9.203125 -10.359375 C 8.785156 -10.722656 8.203125 -10.90625 7.453125 -10.90625 L 4.828125 -10.90625 Z M 4.828125 -6.5625 "/></g></g></g><g fill="#5885af" fill-opacity="1"><g transform="translate(136.594664, 183.489041)"><g><path d="M 12.03125 -10.90625 L 4.828125 -10.90625 L 4.828125 -8.203125 L 11.328125 -8.203125 L 11.328125 -5.46875 L 4.828125 -5.46875 L 4.828125 -2.71875 L 12.25 -2.71875 L 12.25 0 L 1.359375 0 L 1.359375 -13.625 L 12.03125 -13.625 Z M 12.03125 -10.90625 "/></g></g></g><g fill="#5885af" fill-opacity="1"><g transform="translate(156.096796, 183.489041)"><g><path d="M 10.421875 -6.9375 L 13.40625 -6.9375 L 13.40625 -1.609375 C 12.664062 -1.097656 11.773438 -0.675781 10.734375 -0.34375 C 9.691406 -0.0078125 8.695312 0.15625 7.75 0.15625 C 5.675781 0.15625 3.941406 -0.503906 2.546875 -1.828125 C 1.160156 -3.160156 0.46875 -4.820312 0.46875 -6.8125 C 0.46875 -8.78125 1.179688 -10.425781 2.609375 -11.75 C 4.035156 -13.082031 5.828125 -13.75 7.984375 -13.75 C 8.992188 -13.75 10 -13.566406 11 -13.203125 C 12 -12.835938 12.847656 -12.34375 13.546875 -11.71875 L 11.609375 -9.359375 C 11.109375 -9.816406 10.535156 -10.175781 9.890625 -10.4375 C 9.242188 -10.707031 8.601562 -10.84375 7.96875 -10.84375 C 6.84375 -10.84375 5.898438 -10.457031 5.140625 -9.6875 C 4.390625 -8.914062 4.015625 -7.957031 4.015625 -6.8125 C 4.015625 -5.65625 4.394531 -4.6875 5.15625 -3.90625 C 5.925781 -3.132812 6.875 -2.75 8 -2.75 C 8.726562 -2.75 9.535156 -2.96875 10.421875 -3.40625 Z M 10.421875 -6.9375 "/></g></g></g><g fill="#5885af" fill-opacity="1"><g transform="translate(176.941651, 183.489041)"><g><path d="M 4.828125 0 L 1.359375 0 L 1.359375 -13.625 L 4.828125 -13.625 Z M 4.828125 0 "/></g></g></g><g fill="#5885af" fill-opacity="1"><g transform="translate(189.516107, 183.489041)"><g><path d="M 8.859375 0 L 5.28125 0 L -0.015625 -13.625 L 3.671875 -13.625 L 7.171875 -3.609375 L 10.65625 -13.625 L 14.21875 -13.625 Z M 8.859375 0 "/></g></g></g><g fill="#5885af" fill-opacity="1"><g transform="translate(210.088516, 183.489041)"><g><path d="M 12.03125 -10.90625 L 4.828125 -10.90625 L 4.828125 -8.203125 L 11.328125 -8.203125 L 11.328125 -5.46875 L 4.828125 -5.46875 L 4.828125 -2.71875 L 12.25 -2.71875 L 12.25 0 L 1.359375 0 L 1.359375 -13.625 L 12.03125 -13.625 Z M 12.03125 -10.90625 "/></g></g></g><g fill="#5885af" fill-opacity="1"><g transform="translate(229.590647, 183.489041)"><g><path d="M 9.578125 0 L 7.546875 -3.828125 L 4.828125 -3.828125 L 4.828125 0 L 1.359375 0 L 1.359375 -13.625 L 7.453125 -13.625 C 9.253906 -13.625 10.648438 -13.210938 11.640625 -12.390625 C 12.628906 -11.566406 13.125 -10.394531 13.125 -8.875 C 13.125 -6.769531 12.300781 -5.3125 10.65625 -4.5 L 13.515625 0 Z M 4.828125 -6.5625 L 7.453125 -6.5625 C 8.203125 -6.5625 8.785156 -6.75 9.203125 -7.125 C 9.617188 -7.5 9.828125 -8.046875 9.828125 -8.765625 C 9.828125 -9.460938 9.617188 -9.992188 9.203125 -10.359375 C 8.785156 -10.722656 8.203125 -10.90625 7.453125 -10.90625 L 4.828125 -10.90625 Z M 4.828125 -6.5625 "/></g></g></g><g fill="#5885af" fill-opacity="1"><g transform="translate(250.065768, 183.489041)"><g><path d="M 6.59375 -13.78125 C 8.632812 -13.78125 10.425781 -13.273438 11.96875 -12.265625 L 10.671875 -9.5625 C 9.953125 -9.976562 9.179688 -10.316406 8.359375 -10.578125 C 7.546875 -10.847656 6.863281 -10.984375 6.3125 -10.984375 C 5.3125 -10.984375 4.8125 -10.648438 4.8125 -9.984375 C 4.8125 -9.554688 5.054688 -9.210938 5.546875 -8.953125 C 6.035156 -8.691406 6.632812 -8.46875 7.34375 -8.28125 C 8.050781 -8.09375 8.757812 -7.863281 9.46875 -7.59375 C 10.175781 -7.332031 10.773438 -6.898438 11.265625 -6.296875 C 11.765625 -5.703125 12.015625 -4.953125 12.015625 -4.046875 C 12.015625 -2.734375 11.5 -1.710938 10.46875 -0.984375 C 9.445312 -0.253906 8.144531 0.109375 6.5625 0.109375 C 5.4375 0.109375 4.320312 -0.0820312 3.21875 -0.46875 C 2.113281 -0.851562 1.148438 -1.382812 0.328125 -2.0625 L 1.671875 -4.734375 C 2.359375 -4.128906 3.171875 -3.632812 4.109375 -3.25 C 5.046875 -2.875 5.875 -2.6875 6.59375 -2.6875 C 7.15625 -2.6875 7.59375 -2.785156 7.90625 -2.984375 C 8.21875 -3.191406 8.375 -3.488281 8.375 -3.875 C 8.375 -4.25 8.191406 -4.5625 7.828125 -4.8125 C 7.472656 -5.070312 7.03125 -5.257812 6.5 -5.375 C 5.96875 -5.5 5.390625 -5.664062 4.765625 -5.875 C 4.140625 -6.082031 3.5625 -6.3125 3.03125 -6.5625 C 2.5 -6.8125 2.054688 -7.203125 1.703125 -7.734375 C 1.347656 -8.273438 1.171875 -8.921875 1.171875 -9.671875 C 1.171875 -10.921875 1.664062 -11.914062 2.65625 -12.65625 C 3.644531 -13.40625 4.957031 -13.78125 6.59375 -13.78125 Z M 6.59375 -13.78125 "/></g></g></g></svg>